M48
;DRILL file {KiCad 4.0.6+dfsg1-1} date Thu Feb 15 15:58:04 2018
;FORMAT={-:-/ absolute / metric / decimal}
FMAT,2
METRIC,TZ
T1C0.200
T2C0.300
T3C0.500
T4C0.762
%
G90
G05
M71
T1
X12.52Y72.64
X12.52Y70.1
X12.52Y29.46
X12.52Y26.92
X15.06Y72.64
X15.06Y70.1
X15.06Y29.46
X15.06Y26.92
X17.6Y72.64
X17.6Y70.1
X17.6Y29.46
X17.6Y26.92
X20.14Y72.64
X20.14Y70.1
X20.14Y29.46
X20.14Y26.92
X22.68Y72.64
X22.68Y70.1
X22.68Y29.46
X22.68Y26.92
X25.22Y72.64
X25.22Y70.1
X25.22Y29.46
X25.22Y26.92
X27.76Y72.64
X27.76Y70.1
X27.76Y29.46
X27.76Y26.92
X30.3Y72.64
X30.3Y70.1
X30.3Y29.46
X30.3Y26.92
X32.84Y72.64
X32.84Y70.1
X32.84Y29.46
X32.84Y26.92
X35.38Y72.64
X35.38Y70.1
X35.38Y29.46
X35.38Y26.92
T2
X9.21Y49.59
X9.54Y64.12
X15.91Y14.61
X32.Y7.
X38.53Y49.46
X38.82Y63.95
T3
X16.46Y60.66
X16.46Y55.58
X16.46Y40.34
X16.46Y37.8
X31.7Y60.66
X31.7Y55.58
X31.7Y40.34
X31.7Y37.8
T4
X21.49Y6.41
X21.49Y6.41
X21.49Y6.41
X21.49Y6.41
X26.49Y6.41
X26.49Y6.41
X26.49Y6.41
X26.49Y6.41
T0
M30
