G04 #@! TF.FileFunction,Copper,L2,Bot,Signal*
%FSLAX46Y46*%
G04 Gerber Fmt 4.6, Leading zero omitted, Abs format (unit mm)*
G04 Created by KiCad (PCBNEW 4.0.6+dfsg1-1) date Thu Feb 15 15:59:43 2018*
%MOMM*%
%LPD*%
G01*
G04 APERTURE LIST*
%ADD10C,0.100000*%
%ADD11C,0.150000*%
%ADD12O,3.000000X2.000000*%
%ADD13O,2.000000X3.000000*%
%ADD14C,1.700000*%
%ADD15R,1.700000X1.700000*%
%ADD16C,2.000000*%
%ADD17C,2.000000*%
%ADD18C,0.254000*%
G04 APERTURE END LIST*
D10*
D11*
X0Y0D02*
X47000000Y0D01*
X0Y80000000D02*
X0Y0D01*
X47000000Y80000000D02*
X0Y80000000D01*
X47000000Y0D02*
X47000000Y80000000D01*
D12*
X16460000Y60660000D03*
X16460000Y55580000D03*
X16460000Y37800000D03*
X16460000Y40340000D03*
X31700000Y40340000D03*
X31700000Y37800000D03*
X31700000Y55580000D03*
X31700000Y60660000D03*
D13*
X21490000Y6410000D03*
X26490000Y6410000D03*
X26490000Y6410000D03*
X21490000Y6410000D03*
X21490000Y6410000D03*
X26490000Y6410000D03*
X26490000Y6410000D03*
X21490000Y6410000D03*
D14*
X35380000Y29460000D03*
X35380000Y26920000D03*
X32840000Y29460000D03*
X32840000Y26920000D03*
X30300000Y29460000D03*
X30300000Y26920000D03*
X27760000Y29460000D03*
X27760000Y26920000D03*
X25220000Y29460000D03*
X25220000Y26920000D03*
X22680000Y29460000D03*
X22680000Y26920000D03*
X20140000Y29460000D03*
X20140000Y26920000D03*
X17600000Y29460000D03*
X17600000Y26920000D03*
X15060000Y29460000D03*
X15060000Y26920000D03*
X12520000Y29460000D03*
D15*
X12520000Y26920000D03*
X12520000Y70100000D03*
D14*
X12520000Y72640000D03*
X15060000Y70100000D03*
X15060000Y72640000D03*
X17600000Y70100000D03*
X17600000Y72640000D03*
X20140000Y70100000D03*
X20140000Y72640000D03*
X22680000Y70100000D03*
X22680000Y72640000D03*
X25220000Y70100000D03*
X25220000Y72640000D03*
X27760000Y70100000D03*
X27760000Y72640000D03*
X30300000Y70100000D03*
X30300000Y72640000D03*
X32840000Y70100000D03*
X32840000Y72640000D03*
X35380000Y70100000D03*
X35380000Y72640000D03*
D16*
X32000000Y7000000D03*
X15910000Y14610000D03*
X9540000Y64120000D03*
X38820000Y63950000D03*
X9210000Y49590000D03*
X38530000Y49460000D03*
D17*
X31410000Y6410000D02*
X26490000Y6410000D01*
X32000000Y7000000D02*
X31410000Y6410000D01*
X16460000Y37800000D02*
X16460000Y40340000D01*
X26490000Y6410000D02*
X26490000Y3410000D01*
X7250000Y40340000D02*
X16460000Y40340000D01*
X2320000Y35410000D02*
X7250000Y40340000D01*
X2320000Y9470000D02*
X2320000Y35410000D01*
X10050000Y1740000D02*
X2320000Y9470000D01*
X24820000Y1740000D02*
X18140000Y1740000D01*
X18140000Y1740000D02*
X10050000Y1740000D01*
X26490000Y3410000D02*
X24820000Y1740000D01*
X23210000Y10800000D02*
X19720000Y10800000D01*
X19720000Y10800000D02*
X15910000Y14610000D01*
X31700000Y37800000D02*
X31700000Y40340000D01*
X31700000Y40340000D02*
X42380000Y40340000D01*
X21490000Y9080000D02*
X21490000Y6410000D01*
X23210000Y10800000D02*
X21490000Y9080000D01*
X40990000Y10800000D02*
X23210000Y10800000D01*
X45080000Y14890000D02*
X40990000Y10800000D01*
X45080000Y37640000D02*
X45080000Y14890000D01*
X42380000Y40340000D02*
X45080000Y37640000D01*
X12520000Y72640000D02*
X10750000Y72640000D01*
X9540000Y71430000D02*
X9540000Y64120000D01*
X10750000Y72640000D02*
X9540000Y71430000D01*
X13000000Y60660000D02*
X16460000Y60660000D01*
X9540000Y64120000D02*
X13000000Y60660000D01*
X18710000Y76630000D02*
X8870000Y76630000D01*
X5790000Y53010000D02*
X9210000Y49590000D01*
X5790000Y73550000D02*
X5790000Y53010000D01*
X8870000Y76630000D02*
X5790000Y73550000D01*
X15060000Y72640000D02*
X15060000Y75390000D01*
X38820000Y74130000D02*
X38820000Y63950000D01*
X36320000Y76630000D02*
X38820000Y74130000D01*
X16300000Y76630000D02*
X18710000Y76630000D01*
X18710000Y76630000D02*
X36320000Y76630000D01*
X15060000Y75390000D02*
X16300000Y76630000D01*
X35430000Y55580000D02*
X31700000Y55580000D01*
X38710000Y58860000D02*
X35430000Y55580000D01*
X38710000Y63840000D02*
X38710000Y58860000D01*
X38820000Y63950000D02*
X38710000Y63840000D01*
X16460000Y55580000D02*
X10470000Y49590000D01*
X10470000Y49590000D02*
X9210000Y49590000D01*
X31700000Y60660000D02*
X25650000Y60660000D01*
X25960000Y49460000D02*
X38530000Y49460000D01*
X23560000Y51860000D02*
X25960000Y49460000D01*
X23560000Y58570000D02*
X23560000Y51860000D01*
X25650000Y60660000D02*
X23560000Y58570000D01*
D18*
G36*
X45873000Y48127000D02*
X39508931Y48127000D01*
X39915278Y48532637D01*
X40164716Y49133352D01*
X40165284Y49783795D01*
X39916894Y50384943D01*
X39457363Y50845278D01*
X38856648Y51094716D01*
X38206205Y51095284D01*
X38205518Y51095000D01*
X26637239Y51095000D01*
X25195000Y52537240D01*
X25195000Y55199566D01*
X29609876Y55199566D01*
X29640856Y55071645D01*
X29954078Y54513683D01*
X30456980Y54118058D01*
X31073000Y53945000D01*
X31573000Y53945000D01*
X31573000Y55453000D01*
X31827000Y55453000D01*
X31827000Y53945000D01*
X32327000Y53945000D01*
X32943020Y54118058D01*
X33445922Y54513683D01*
X33759144Y55071645D01*
X33790124Y55199566D01*
X33670777Y55453000D01*
X31827000Y55453000D01*
X31573000Y55453000D01*
X29729223Y55453000D01*
X29609876Y55199566D01*
X25195000Y55199566D01*
X25195000Y55960434D01*
X29609876Y55960434D01*
X29729223Y55707000D01*
X31573000Y55707000D01*
X31573000Y57215000D01*
X31827000Y57215000D01*
X31827000Y55707000D01*
X33670777Y55707000D01*
X33790124Y55960434D01*
X33759144Y56088355D01*
X33445922Y56646317D01*
X32943020Y57041942D01*
X32327000Y57215000D01*
X31827000Y57215000D01*
X31573000Y57215000D01*
X31073000Y57215000D01*
X30456980Y57041942D01*
X29954078Y56646317D01*
X29640856Y56088355D01*
X29609876Y55960434D01*
X25195000Y55960434D01*
X25195000Y57892760D01*
X26327239Y59025000D01*
X32241827Y59025000D01*
X32867514Y59149457D01*
X33397947Y59503880D01*
X33752370Y60034313D01*
X33876827Y60660000D01*
X33752370Y61285687D01*
X33397947Y61816120D01*
X32867514Y62170543D01*
X32241827Y62295000D01*
X25650000Y62295000D01*
X25024313Y62170543D01*
X24493880Y61816120D01*
X24493878Y61816117D01*
X22403880Y59726120D01*
X22049457Y59195688D01*
X21924999Y58570000D01*
X21925000Y58569995D01*
X21925000Y51860005D01*
X21924999Y51860000D01*
X22049457Y51234312D01*
X22403880Y50703880D01*
X24803878Y48303883D01*
X24803880Y48303880D01*
X25068601Y48127000D01*
X1127000Y48127000D01*
X1127000Y55199566D01*
X14369876Y55199566D01*
X14400856Y55071645D01*
X14714078Y54513683D01*
X15216980Y54118058D01*
X15833000Y53945000D01*
X16333000Y53945000D01*
X16333000Y55453000D01*
X16587000Y55453000D01*
X16587000Y53945000D01*
X17087000Y53945000D01*
X17703020Y54118058D01*
X18205922Y54513683D01*
X18519144Y55071645D01*
X18550124Y55199566D01*
X18430777Y55453000D01*
X16587000Y55453000D01*
X16333000Y55453000D01*
X14489223Y55453000D01*
X14369876Y55199566D01*
X1127000Y55199566D01*
X1127000Y55960434D01*
X14369876Y55960434D01*
X14489223Y55707000D01*
X16333000Y55707000D01*
X16333000Y57215000D01*
X16587000Y57215000D01*
X16587000Y55707000D01*
X18430777Y55707000D01*
X18550124Y55960434D01*
X18519144Y56088355D01*
X18205922Y56646317D01*
X17703020Y57041942D01*
X17087000Y57215000D01*
X16587000Y57215000D01*
X16333000Y57215000D01*
X15833000Y57215000D01*
X15216980Y57041942D01*
X14714078Y56646317D01*
X14400856Y56088355D01*
X14369876Y55960434D01*
X1127000Y55960434D01*
X1127000Y63796205D01*
X7904716Y63796205D01*
X8153106Y63195057D01*
X8612637Y62734722D01*
X8613323Y62734437D01*
X11843880Y59503880D01*
X12374312Y59149457D01*
X13000000Y59024999D01*
X13000005Y59025000D01*
X17001827Y59025000D01*
X17627514Y59149457D01*
X18157947Y59503880D01*
X18512370Y60034313D01*
X18636827Y60660000D01*
X18512370Y61285687D01*
X18157947Y61816120D01*
X17627514Y62170543D01*
X17001827Y62295000D01*
X13677240Y62295000D01*
X11175000Y64797240D01*
X11175000Y68846594D01*
X11205910Y68798559D01*
X11418110Y68653569D01*
X11670000Y68602560D01*
X13370000Y68602560D01*
X13605317Y68646838D01*
X13821441Y68785910D01*
X13966431Y68998110D01*
X13982496Y69077443D01*
X14217717Y68841812D01*
X14763319Y68615258D01*
X15354089Y68614743D01*
X15900086Y68840344D01*
X16318188Y69257717D01*
X16329748Y69285557D01*
X16340344Y69259914D01*
X16757717Y68841812D01*
X17303319Y68615258D01*
X17894089Y68614743D01*
X18440086Y68840344D01*
X18858188Y69257717D01*
X18869748Y69285557D01*
X18880344Y69259914D01*
X19297717Y68841812D01*
X19843319Y68615258D01*
X20434089Y68614743D01*
X20980086Y68840344D01*
X21398188Y69257717D01*
X21409748Y69285557D01*
X21420344Y69259914D01*
X21837717Y68841812D01*
X22383319Y68615258D01*
X22974089Y68614743D01*
X23520086Y68840344D01*
X23938188Y69257717D01*
X23949748Y69285557D01*
X23960344Y69259914D01*
X24377717Y68841812D01*
X24923319Y68615258D01*
X25514089Y68614743D01*
X26060086Y68840344D01*
X26478188Y69257717D01*
X26489748Y69285557D01*
X26500344Y69259914D01*
X26917717Y68841812D01*
X27463319Y68615258D01*
X28054089Y68614743D01*
X28600086Y68840344D01*
X29018188Y69257717D01*
X29029748Y69285557D01*
X29040344Y69259914D01*
X29457717Y68841812D01*
X30003319Y68615258D01*
X30594089Y68614743D01*
X31140086Y68840344D01*
X31558188Y69257717D01*
X31569748Y69285557D01*
X31580344Y69259914D01*
X31997717Y68841812D01*
X32543319Y68615258D01*
X33134089Y68614743D01*
X33680086Y68840344D01*
X34098188Y69257717D01*
X34109748Y69285557D01*
X34120344Y69259914D01*
X34537717Y68841812D01*
X35083319Y68615258D01*
X35674089Y68614743D01*
X36220086Y68840344D01*
X36638188Y69257717D01*
X36864742Y69803319D01*
X36865257Y70394089D01*
X36639656Y70940086D01*
X36222283Y71358188D01*
X36194443Y71369748D01*
X36220086Y71380344D01*
X36638188Y71797717D01*
X36864742Y72343319D01*
X36865257Y72934089D01*
X36639656Y73480086D01*
X36222283Y73898188D01*
X35676681Y74124742D01*
X35085911Y74125257D01*
X34539914Y73899656D01*
X34121812Y73482283D01*
X34110252Y73454443D01*
X34099656Y73480086D01*
X33682283Y73898188D01*
X33136681Y74124742D01*
X32545911Y74125257D01*
X31999914Y73899656D01*
X31581812Y73482283D01*
X31570252Y73454443D01*
X31559656Y73480086D01*
X31142283Y73898188D01*
X30596681Y74124742D01*
X30005911Y74125257D01*
X29459914Y73899656D01*
X29041812Y73482283D01*
X29030252Y73454443D01*
X29019656Y73480086D01*
X28602283Y73898188D01*
X28056681Y74124742D01*
X27465911Y74125257D01*
X26919914Y73899656D01*
X26501812Y73482283D01*
X26490252Y73454443D01*
X26479656Y73480086D01*
X26062283Y73898188D01*
X25516681Y74124742D01*
X24925911Y74125257D01*
X24379914Y73899656D01*
X23961812Y73482283D01*
X23950252Y73454443D01*
X23939656Y73480086D01*
X23522283Y73898188D01*
X22976681Y74124742D01*
X22385911Y74125257D01*
X21839914Y73899656D01*
X21421812Y73482283D01*
X21410252Y73454443D01*
X21399656Y73480086D01*
X20982283Y73898188D01*
X20436681Y74124742D01*
X19845911Y74125257D01*
X19299914Y73899656D01*
X18881812Y73482283D01*
X18870252Y73454443D01*
X18859656Y73480086D01*
X18442283Y73898188D01*
X17896681Y74124742D01*
X17305911Y74125257D01*
X16759914Y73899656D01*
X16341812Y73482283D01*
X16322049Y73434688D01*
X16103958Y73504353D01*
X15239605Y72640000D01*
X16103958Y71775647D01*
X16321640Y71845181D01*
X16340344Y71799914D01*
X16757717Y71381812D01*
X16785557Y71370252D01*
X16759914Y71359656D01*
X16341812Y70942283D01*
X16330252Y70914443D01*
X16319656Y70940086D01*
X15902283Y71358188D01*
X15854688Y71377951D01*
X15924353Y71596042D01*
X15060000Y72460395D01*
X14195647Y71596042D01*
X14265181Y71378360D01*
X14219914Y71359656D01*
X13984565Y71124717D01*
X13973162Y71185317D01*
X13834090Y71401441D01*
X13687817Y71501385D01*
X13896571Y71813810D01*
X14016042Y71775647D01*
X14880395Y72640000D01*
X14016042Y73504353D01*
X13896571Y73466190D01*
X13751064Y73683958D01*
X14195647Y73683958D01*
X15060000Y72819605D01*
X15924353Y73683958D01*
X15844080Y73935259D01*
X15288721Y74136718D01*
X14698542Y74110315D01*
X14275920Y73935259D01*
X14195647Y73683958D01*
X13751064Y73683958D01*
X13676120Y73796120D01*
X13145687Y74150543D01*
X12520000Y74275000D01*
X10750000Y74275000D01*
X10124313Y74150543D01*
X9593880Y73796120D01*
X9593878Y73796117D01*
X8383880Y72586120D01*
X8029457Y72055688D01*
X7904999Y71430000D01*
X7905000Y71429995D01*
X7905000Y64121426D01*
X7904716Y63796205D01*
X1127000Y63796205D01*
X1127000Y78873000D01*
X45873000Y78873000D01*
X45873000Y48127000D01*
X45873000Y48127000D01*
G37*
X45873000Y48127000D02*
X39508931Y48127000D01*
X39915278Y48532637D01*
X40164716Y49133352D01*
X40165284Y49783795D01*
X39916894Y50384943D01*
X39457363Y50845278D01*
X38856648Y51094716D01*
X38206205Y51095284D01*
X38205518Y51095000D01*
X26637239Y51095000D01*
X25195000Y52537240D01*
X25195000Y55199566D01*
X29609876Y55199566D01*
X29640856Y55071645D01*
X29954078Y54513683D01*
X30456980Y54118058D01*
X31073000Y53945000D01*
X31573000Y53945000D01*
X31573000Y55453000D01*
X31827000Y55453000D01*
X31827000Y53945000D01*
X32327000Y53945000D01*
X32943020Y54118058D01*
X33445922Y54513683D01*
X33759144Y55071645D01*
X33790124Y55199566D01*
X33670777Y55453000D01*
X31827000Y55453000D01*
X31573000Y55453000D01*
X29729223Y55453000D01*
X29609876Y55199566D01*
X25195000Y55199566D01*
X25195000Y55960434D01*
X29609876Y55960434D01*
X29729223Y55707000D01*
X31573000Y55707000D01*
X31573000Y57215000D01*
X31827000Y57215000D01*
X31827000Y55707000D01*
X33670777Y55707000D01*
X33790124Y55960434D01*
X33759144Y56088355D01*
X33445922Y56646317D01*
X32943020Y57041942D01*
X32327000Y57215000D01*
X31827000Y57215000D01*
X31573000Y57215000D01*
X31073000Y57215000D01*
X30456980Y57041942D01*
X29954078Y56646317D01*
X29640856Y56088355D01*
X29609876Y55960434D01*
X25195000Y55960434D01*
X25195000Y57892760D01*
X26327239Y59025000D01*
X32241827Y59025000D01*
X32867514Y59149457D01*
X33397947Y59503880D01*
X33752370Y60034313D01*
X33876827Y60660000D01*
X33752370Y61285687D01*
X33397947Y61816120D01*
X32867514Y62170543D01*
X32241827Y62295000D01*
X25650000Y62295000D01*
X25024313Y62170543D01*
X24493880Y61816120D01*
X24493878Y61816117D01*
X22403880Y59726120D01*
X22049457Y59195688D01*
X21924999Y58570000D01*
X21925000Y58569995D01*
X21925000Y51860005D01*
X21924999Y51860000D01*
X22049457Y51234312D01*
X22403880Y50703880D01*
X24803878Y48303883D01*
X24803880Y48303880D01*
X25068601Y48127000D01*
X1127000Y48127000D01*
X1127000Y55199566D01*
X14369876Y55199566D01*
X14400856Y55071645D01*
X14714078Y54513683D01*
X15216980Y54118058D01*
X15833000Y53945000D01*
X16333000Y53945000D01*
X16333000Y55453000D01*
X16587000Y55453000D01*
X16587000Y53945000D01*
X17087000Y53945000D01*
X17703020Y54118058D01*
X18205922Y54513683D01*
X18519144Y55071645D01*
X18550124Y55199566D01*
X18430777Y55453000D01*
X16587000Y55453000D01*
X16333000Y55453000D01*
X14489223Y55453000D01*
X14369876Y55199566D01*
X1127000Y55199566D01*
X1127000Y55960434D01*
X14369876Y55960434D01*
X14489223Y55707000D01*
X16333000Y55707000D01*
X16333000Y57215000D01*
X16587000Y57215000D01*
X16587000Y55707000D01*
X18430777Y55707000D01*
X18550124Y55960434D01*
X18519144Y56088355D01*
X18205922Y56646317D01*
X17703020Y57041942D01*
X17087000Y57215000D01*
X16587000Y57215000D01*
X16333000Y57215000D01*
X15833000Y57215000D01*
X15216980Y57041942D01*
X14714078Y56646317D01*
X14400856Y56088355D01*
X14369876Y55960434D01*
X1127000Y55960434D01*
X1127000Y63796205D01*
X7904716Y63796205D01*
X8153106Y63195057D01*
X8612637Y62734722D01*
X8613323Y62734437D01*
X11843880Y59503880D01*
X12374312Y59149457D01*
X13000000Y59024999D01*
X13000005Y59025000D01*
X17001827Y59025000D01*
X17627514Y59149457D01*
X18157947Y59503880D01*
X18512370Y60034313D01*
X18636827Y60660000D01*
X18512370Y61285687D01*
X18157947Y61816120D01*
X17627514Y62170543D01*
X17001827Y62295000D01*
X13677240Y62295000D01*
X11175000Y64797240D01*
X11175000Y68846594D01*
X11205910Y68798559D01*
X11418110Y68653569D01*
X11670000Y68602560D01*
X13370000Y68602560D01*
X13605317Y68646838D01*
X13821441Y68785910D01*
X13966431Y68998110D01*
X13982496Y69077443D01*
X14217717Y68841812D01*
X14763319Y68615258D01*
X15354089Y68614743D01*
X15900086Y68840344D01*
X16318188Y69257717D01*
X16329748Y69285557D01*
X16340344Y69259914D01*
X16757717Y68841812D01*
X17303319Y68615258D01*
X17894089Y68614743D01*
X18440086Y68840344D01*
X18858188Y69257717D01*
X18869748Y69285557D01*
X18880344Y69259914D01*
X19297717Y68841812D01*
X19843319Y68615258D01*
X20434089Y68614743D01*
X20980086Y68840344D01*
X21398188Y69257717D01*
X21409748Y69285557D01*
X21420344Y69259914D01*
X21837717Y68841812D01*
X22383319Y68615258D01*
X22974089Y68614743D01*
X23520086Y68840344D01*
X23938188Y69257717D01*
X23949748Y69285557D01*
X23960344Y69259914D01*
X24377717Y68841812D01*
X24923319Y68615258D01*
X25514089Y68614743D01*
X26060086Y68840344D01*
X26478188Y69257717D01*
X26489748Y69285557D01*
X26500344Y69259914D01*
X26917717Y68841812D01*
X27463319Y68615258D01*
X28054089Y68614743D01*
X28600086Y68840344D01*
X29018188Y69257717D01*
X29029748Y69285557D01*
X29040344Y69259914D01*
X29457717Y68841812D01*
X30003319Y68615258D01*
X30594089Y68614743D01*
X31140086Y68840344D01*
X31558188Y69257717D01*
X31569748Y69285557D01*
X31580344Y69259914D01*
X31997717Y68841812D01*
X32543319Y68615258D01*
X33134089Y68614743D01*
X33680086Y68840344D01*
X34098188Y69257717D01*
X34109748Y69285557D01*
X34120344Y69259914D01*
X34537717Y68841812D01*
X35083319Y68615258D01*
X35674089Y68614743D01*
X36220086Y68840344D01*
X36638188Y69257717D01*
X36864742Y69803319D01*
X36865257Y70394089D01*
X36639656Y70940086D01*
X36222283Y71358188D01*
X36194443Y71369748D01*
X36220086Y71380344D01*
X36638188Y71797717D01*
X36864742Y72343319D01*
X36865257Y72934089D01*
X36639656Y73480086D01*
X36222283Y73898188D01*
X35676681Y74124742D01*
X35085911Y74125257D01*
X34539914Y73899656D01*
X34121812Y73482283D01*
X34110252Y73454443D01*
X34099656Y73480086D01*
X33682283Y73898188D01*
X33136681Y74124742D01*
X32545911Y74125257D01*
X31999914Y73899656D01*
X31581812Y73482283D01*
X31570252Y73454443D01*
X31559656Y73480086D01*
X31142283Y73898188D01*
X30596681Y74124742D01*
X30005911Y74125257D01*
X29459914Y73899656D01*
X29041812Y73482283D01*
X29030252Y73454443D01*
X29019656Y73480086D01*
X28602283Y73898188D01*
X28056681Y74124742D01*
X27465911Y74125257D01*
X26919914Y73899656D01*
X26501812Y73482283D01*
X26490252Y73454443D01*
X26479656Y73480086D01*
X26062283Y73898188D01*
X25516681Y74124742D01*
X24925911Y74125257D01*
X24379914Y73899656D01*
X23961812Y73482283D01*
X23950252Y73454443D01*
X23939656Y73480086D01*
X23522283Y73898188D01*
X22976681Y74124742D01*
X22385911Y74125257D01*
X21839914Y73899656D01*
X21421812Y73482283D01*
X21410252Y73454443D01*
X21399656Y73480086D01*
X20982283Y73898188D01*
X20436681Y74124742D01*
X19845911Y74125257D01*
X19299914Y73899656D01*
X18881812Y73482283D01*
X18870252Y73454443D01*
X18859656Y73480086D01*
X18442283Y73898188D01*
X17896681Y74124742D01*
X17305911Y74125257D01*
X16759914Y73899656D01*
X16341812Y73482283D01*
X16322049Y73434688D01*
X16103958Y73504353D01*
X15239605Y72640000D01*
X16103958Y71775647D01*
X16321640Y71845181D01*
X16340344Y71799914D01*
X16757717Y71381812D01*
X16785557Y71370252D01*
X16759914Y71359656D01*
X16341812Y70942283D01*
X16330252Y70914443D01*
X16319656Y70940086D01*
X15902283Y71358188D01*
X15854688Y71377951D01*
X15924353Y71596042D01*
X15060000Y72460395D01*
X14195647Y71596042D01*
X14265181Y71378360D01*
X14219914Y71359656D01*
X13984565Y71124717D01*
X13973162Y71185317D01*
X13834090Y71401441D01*
X13687817Y71501385D01*
X13896571Y71813810D01*
X14016042Y71775647D01*
X14880395Y72640000D01*
X14016042Y73504353D01*
X13896571Y73466190D01*
X13751064Y73683958D01*
X14195647Y73683958D01*
X15060000Y72819605D01*
X15924353Y73683958D01*
X15844080Y73935259D01*
X15288721Y74136718D01*
X14698542Y74110315D01*
X14275920Y73935259D01*
X14195647Y73683958D01*
X13751064Y73683958D01*
X13676120Y73796120D01*
X13145687Y74150543D01*
X12520000Y74275000D01*
X10750000Y74275000D01*
X10124313Y74150543D01*
X9593880Y73796120D01*
X9593878Y73796117D01*
X8383880Y72586120D01*
X8029457Y72055688D01*
X7904999Y71430000D01*
X7905000Y71429995D01*
X7905000Y64121426D01*
X7904716Y63796205D01*
X1127000Y63796205D01*
X1127000Y78873000D01*
X45873000Y78873000D01*
X45873000Y48127000D01*
M02*
