M48
;DRILL file {KiCad 4.0.6+dfsg1-1} date Fri May  4 11:45:21 2018
;FORMAT={-:-/ absolute / metric / decimal}
FMAT,2
METRIC,TZ
T1C0.500
T2C0.800
T3C1.100
%
G90
G05
M71
T1
X3.41Y61.03
X5.28Y58.86
X6.88Y56.84
X8.9Y54.52
X10.77Y52.5
X12.81Y50.34
X14.72Y48.2
X17.56Y42.43
X18.27Y50.33
X19.04Y40.77
X21.25Y37.3
X28.4Y34.9
X29.7Y14.7
X32.25Y57.68
X34.4Y35.
X38.03Y50.96
X41.8Y56.8
X42.7Y22.
X45.09Y68.68
T2
X16.8Y67.24
X16.8Y64.7
X16.8Y24.06
X16.8Y21.52
X19.34Y67.24
X19.34Y64.7
X19.34Y24.06
X19.34Y21.52
X21.88Y67.24
X21.88Y64.7
X21.88Y24.06
X21.88Y21.52
X24.42Y67.24
X24.42Y64.7
X24.42Y24.06
X24.42Y21.52
X26.96Y67.24
X26.96Y64.7
X26.96Y24.06
X26.96Y21.52
X29.5Y67.24
X29.5Y64.7
X29.5Y24.06
X29.5Y21.52
X32.04Y67.24
X32.04Y64.7
X32.04Y24.06
X32.04Y21.52
X34.58Y67.24
X34.58Y64.7
X34.58Y24.06
X34.58Y21.52
X37.12Y67.24
X37.12Y64.7
X37.12Y24.06
X37.12Y21.52
X39.66Y67.24
X39.66Y64.7
X39.66Y24.06
X39.66Y21.52
T3
X3.5Y10.21
X8.5Y10.21
X13.5Y10.21
X18.5Y10.21
X23.5Y10.21
X28.5Y10.21
X33.5Y10.21
X38.5Y10.21
X43.5Y10.21
X48.5Y10.21
X53.5Y10.21
T0
M30
