M48
;DRILL file {KiCad 4.0.6+dfsg1-1} date Mon Mar 26 13:06:35 2018
;FORMAT={-:-/ absolute / metric / decimal}
FMAT,2
METRIC,TZ
T1C0.100
T2C0.300
T3C0.500
T4C0.800
T5C1.100
%
G90
G05
M71
T1
X0.Y67.
X0.Y0.
X34.Y67.
X34.Y0.
T2
X3.84Y12.8
X10.16Y55.68
X32.23Y4.42
X32.68Y58.64
T3
X10.86Y50.4
X10.86Y45.32
X10.86Y30.08
X10.86Y27.54
X26.1Y50.4
X26.1Y45.32
X26.1Y30.08
X26.1Y27.54
T4
X8.43Y64.09
X8.43Y61.55
X8.43Y20.91
X8.43Y18.37
X10.97Y64.09
X10.97Y61.55
X10.97Y20.91
X10.97Y18.37
X13.51Y64.09
X13.51Y61.55
X13.51Y20.91
X13.51Y18.37
X16.05Y64.09
X16.05Y61.55
X16.05Y20.91
X16.05Y18.37
X18.59Y64.09
X18.59Y61.55
X18.59Y20.91
X18.59Y18.37
X21.13Y64.09
X21.13Y61.55
X21.13Y20.91
X21.13Y18.37
X23.67Y64.09
X23.67Y61.55
X23.67Y20.91
X23.67Y18.37
X26.21Y64.09
X26.21Y61.55
X26.21Y20.91
X26.21Y18.37
X28.75Y64.09
X28.75Y61.55
X28.75Y20.91
X28.75Y18.37
X31.29Y64.09
X31.29Y61.55
X31.29Y20.91
X31.29Y18.37
T5
X16.14Y10.34
X21.14Y10.34
X29.61Y55.68
T0
M30
