  0
SECTION
  2
HEADER
  9
$ANGBASE
  50
0.0
  9
$ANGDIR
  70
  1
  9
$MEASUREMENT
  70
0
  0
ENDSEC
  0
SECTION
  2
TABLES
  0
TABLE
  2
LTYPE
  70
1
  0
LTYPE
  2
CONTINUOUS
  70
0
  3
Solid line
  72
65
  73
0
  40
0.0
  0
ENDTAB
  0
TABLE
  2
STYLE
  70
4
  0
STYLE
  2
KICAD
  70
0
  40
0
  41
1
  42
1
  50
0
  71
0
  3
isocp.shx
  0
STYLE
  2
KICADB
  70
0
  40
0
  41
1
  42
1
  50
0
  71
0
  3
isocp.shx
  0
STYLE
  2
KICADI
  70
0
  40
0
  41
1
  42
1
  50
15
  71
0
  3
isocp.shx
  0
STYLE
  2
KICADBI
  70
0
  40
0
  41
1
  42
1
  50
15
  71
0
  3
isocp.shx
  0
ENDTAB
  0
TABLE
  2
LAYER
  70
30
  0
LAYER
  2
BLACK
  70
0
  62
7
  6
CONTINUOUS
  0
LAYER
  2
GRAY1
  70
0
  62
251
  6
CONTINUOUS
  0
LAYER
  2
GRAY2
  70
0
  62
8
  6
CONTINUOUS
  0
LAYER
  2
GRAY3
  70
0
  62
9
  6
CONTINUOUS
  0
LAYER
  2
WHITE
  70
0
  62
7
  6
CONTINUOUS
  0
LAYER
  2
LYELLOW
  70
0
  62
51
  6
CONTINUOUS
  0
LAYER
  2
BLUE1
  70
0
  62
178
  6
CONTINUOUS
  0
LAYER
  2
GREEN1
  70
0
  62
98
  6
CONTINUOUS
  0
LAYER
  2
CYAN1
  70
0
  62
138
  6
CONTINUOUS
  0
LAYER
  2
RED1
  70
0
  62
18
  6
CONTINUOUS
  0
LAYER
  2
MAGENTA1
  70
0
  62
228
  6
CONTINUOUS
  0
LAYER
  2
BROWN1
  70
0
  62
58
  6
CONTINUOUS
  0
LAYER
  2
BLUE2
  70
0
  62
5
  6
CONTINUOUS
  0
LAYER
  2
GREEN2
  70
0
  62
3
  6
CONTINUOUS
  0
LAYER
  2
CYAN2
  70
0
  62
4
  6
CONTINUOUS
  0
LAYER
  2
RED2
  70
0
  62
1
  6
CONTINUOUS
  0
LAYER
  2
MAGENTA2
  70
0
  62
6
  6
CONTINUOUS
  0
LAYER
  2
BROWN2
  70
0
  62
54
  6
CONTINUOUS
  0
LAYER
  2
BLUE3
  70
0
  62
171
  6
CONTINUOUS
  0
LAYER
  2
GREEN3
  70
0
  62
91
  6
CONTINUOUS
  0
LAYER
  2
CYAN3
  70
0
  62
131
  6
CONTINUOUS
  0
LAYER
  2
RED3
  70
0
  62
11
  6
CONTINUOUS
  0
LAYER
  2
MAGENTA3
  70
0
  62
221
  6
CONTINUOUS
  0
LAYER
  2
YELLOW3
  70
0
  62
2
  6
CONTINUOUS
  0
LAYER
  2
BLUE4
  70
0
  62
5
  6
CONTINUOUS
  0
LAYER
  2
GREEN4
  70
0
  62
3
  6
CONTINUOUS
  0
LAYER
  2
CYAN4
  70
0
  62
4
  6
CONTINUOUS
  0
LAYER
  2
RED4
  70
0
  62
1
  6
CONTINUOUS
  0
LAYER
  2
MAGENTA4
  70
0
  62
6
  6
CONTINUOUS
  0
LAYER
  2
YELLOW4
  70
0
  62
2
  6
CONTINUOUS
  0
ENDTAB
  0
ENDSEC
  0
SECTION
  2
ENTITIES
0
LINE
8
Black
10
34.0004
20
67.0049
11
34.0009
21
67.0049
0
LINE
8
Black
10
34.0009
20
67.0049
11
34.0013
21
67.0048
0
LINE
8
Black
10
34.0013
20
67.0048
11
34.0017
21
67.0047
0
LINE
8
Black
10
34.0017
20
67.0047
11
34.0021
21
67.0045
0
LINE
8
Black
10
34.0021
20
67.0045
11
34.0025
21
67.0043
0
LINE
8
Black
10
34.0025
20
67.0043
11
34.0028
21
67.004
0
LINE
8
Black
10
34.0028
20
67.004
11
34.0032
21
67.0038
0
LINE
8
Black
10
34.0032
20
67.0038
11
34.0035
21
67.0035
0
LINE
8
Black
10
34.0035
20
67.0035
11
34.0038
21
67.0032
0
LINE
8
Black
10
34.0038
20
67.0032
11
34.004
21
67.0028
0
LINE
8
Black
10
34.004
20
67.0028
11
34.0043
21
67.0025
0
LINE
8
Black
10
34.0043
20
67.0025
11
34.0045
21
67.0021
0
LINE
8
Black
10
34.0045
20
67.0021
11
34.0047
21
67.0017
0
LINE
8
Black
10
34.0047
20
67.0017
11
34.0048
21
67.0013
0
LINE
8
Black
10
34.0048
20
67.0013
11
34.0049
21
67.0009
0
LINE
8
Black
10
34.0049
20
67.0009
11
34.0049
21
67.0004
0
LINE
8
Black
10
34.0049
20
67.0004
11
34.005
21
67
0
LINE
8
Black
10
34.005
20
67
11
34.005
21
0
0
LINE
8
Black
10
34.005
20
0
11
34.0049
21
-0.00043
0
LINE
8
Black
10
34.0049
20
-0.00043
11
34.0049
21
-0.000868
0
LINE
8
Black
10
34.0049
20
-0.000868
11
34.0048
21
-0.001281
0
LINE
8
Black
10
34.0048
20
-0.001281
11
34.0047
21
-0.00171
0
LINE
8
Black
10
34.0047
20
-0.00171
11
34.0045
21
-0.002087
0
LINE
8
Black
10
34.0045
20
-0.002087
11
34.0043
21
-0.0025
0
LINE
8
Black
10
34.0043
20
-0.0025
11
34.004
21
-0.002836
0
LINE
8
Black
10
34.004
20
-0.002836
11
34.0038
21
-0.003214
0
LINE
8
Black
10
34.0038
20
-0.003214
11
34.0035
21
-0.003495
0
LINE
8
Black
10
34.0035
20
-0.003495
11
34.0032
21
-0.00383
0
LINE
8
Black
10
34.0032
20
-0.00383
11
34.0028
21
-0.004048
0
LINE
8
Black
10
34.0028
20
-0.004048
11
34.0025
21
-0.00433
0
LINE
8
Black
10
34.0025
20
-0.00433
11
34.0021
21
-0.00448
0
LINE
8
Black
10
34.0021
20
-0.00448
11
34.0017
21
-0.004698
0
LINE
8
Black
10
34.0017
20
-0.004698
11
34.0013
21
-0.004774
0
LINE
8
Black
10
34.0013
20
-0.004774
11
34.0009
21
-0.004924
0
LINE
8
Black
10
34.0009
20
-0.004924
11
34.0004
21
-0.004924
0
LINE
8
Black
10
34.0004
20
-0.004924
11
34
21
-0.005
0
LINE
8
Black
10
34
20
-0.005
11
0
21
-0.005
0
LINE
8
Black
10
0
20
-0.005
11
-0.00043
21
-0.004924
0
LINE
8
Black
10
-0.00043
20
-0.004924
11
-0.000868
21
-0.004924
0
LINE
8
Black
10
-0.000868
20
-0.004924
11
-0.001281
21
-0.004774
0
LINE
8
Black
10
-0.001281
20
-0.004774
11
-0.00171
21
-0.004698
0
LINE
8
Black
10
-0.00171
20
-0.004698
11
-0.002087
21
-0.00448
0
LINE
8
Black
10
-0.002087
20
-0.00448
11
-0.0025
21
-0.00433
0
LINE
8
Black
10
-0.0025
20
-0.00433
11
-0.002836
21
-0.004048
0
LINE
8
Black
10
-0.002836
20
-0.004048
11
-0.003214
21
-0.00383
0
LINE
8
Black
10
-0.003214
20
-0.00383
11
-0.003495
21
-0.003495
0
LINE
8
Black
10
-0.003495
20
-0.003495
11
-0.00383
21
-0.003214
0
LINE
8
Black
10
-0.00383
20
-0.003214
11
-0.004048
21
-0.002836
0
LINE
8
Black
10
-0.004048
20
-0.002836
11
-0.00433
21
-0.0025
0
LINE
8
Black
10
-0.00433
20
-0.0025
11
-0.00448
21
-0.002087
0
LINE
8
Black
10
-0.00448
20
-0.002087
11
-0.004698
21
-0.00171
0
LINE
8
Black
10
-0.004698
20
-0.00171
11
-0.004774
21
-0.001281
0
LINE
8
Black
10
-0.004774
20
-0.001281
11
-0.004924
21
-0.000868
0
LINE
8
Black
10
-0.004924
20
-0.000868
11
-0.004924
21
-0.00043
0
LINE
8
Black
10
-0.004924
20
-0.00043
11
-0.005
21
0
0
LINE
8
Black
10
-0.005
20
0
11
-0.005
21
67
0
LINE
8
Black
10
-0.005
20
67
11
-0.004924
21
67.0004
0
LINE
8
Black
10
-0.004924
20
67.0004
11
-0.004924
21
67.0009
0
LINE
8
Black
10
-0.004924
20
67.0009
11
-0.004774
21
67.0013
0
LINE
8
Black
10
-0.004774
20
67.0013
11
-0.004698
21
67.0017
0
LINE
8
Black
10
-0.004698
20
67.0017
11
-0.00448
21
67.0021
0
LINE
8
Black
10
-0.00448
20
67.0021
11
-0.00433
21
67.0025
0
LINE
8
Black
10
-0.00433
20
67.0025
11
-0.004048
21
67.0028
0
LINE
8
Black
10
-0.004048
20
67.0028
11
-0.00383
21
67.0032
0
LINE
8
Black
10
-0.00383
20
67.0032
11
-0.003495
21
67.0035
0
LINE
8
Black
10
-0.003495
20
67.0035
11
-0.003214
21
67.0038
0
LINE
8
Black
10
-0.003214
20
67.0038
11
-0.002836
21
67.004
0
LINE
8
Black
10
-0.002836
20
67.004
11
-0.0025
21
67.0043
0
LINE
8
Black
10
-0.0025
20
67.0043
11
-0.002087
21
67.0045
0
LINE
8
Black
10
-0.002087
20
67.0045
11
-0.00171
21
67.0047
0
LINE
8
Black
10
-0.00171
20
67.0047
11
-0.001281
21
67.0048
0
LINE
8
Black
10
-0.001281
20
67.0048
11
-0.000868
21
67.0049
0
LINE
8
Black
10
-0.000868
20
67.0049
11
-0.00043
21
67.0049
0
LINE
8
Black
10
-0.00043
20
67.0049
11
0
21
67.005
0
LINE
8
Black
10
0
20
67.005
11
34
21
67.005
0
LINE
8
Black
10
34
20
67.005
11
34.0004
21
67.0049
0
LINE
8
Black
10
0.005
20
66.995
11
0.005
21
0.005
0
LINE
8
Black
10
0.005
20
0.005
11
33.995
21
0.005
0
LINE
8
Black
10
33.995
20
0.005
11
33.995
21
66.995
0
LINE
8
Black
10
33.995
20
66.995
11
0.005
21
66.995
  0
ENDSEC
  0
EOF
