G04 #@! TF.FileFunction,Copper,L2,Bot,Signal*
%FSLAX46Y46*%
G04 Gerber Fmt 4.6, Leading zero omitted, Abs format (unit mm)*
G04 Created by KiCad (PCBNEW 4.0.6+dfsg1-1) date Fri May  4 13:32:49 2018*
%MOMM*%
%LPD*%
G01*
G04 APERTURE LIST*
%ADD10C,0.100000*%
%ADD11O,4.000000X3.000000*%
%ADD12O,3.000000X4.000000*%
%ADD13O,3.000000X2.000000*%
%ADD14C,1.700000*%
%ADD15R,1.700000X1.700000*%
%ADD16R,2.500000X3.750000*%
%ADD17R,3.300000X1.700000*%
%ADD18C,2.000000*%
%ADD19C,1.500000*%
%ADD20C,1.000000*%
%ADD21C,0.254000*%
G04 APERTURE END LIST*
D10*
D11*
X29610000Y55680000D03*
D12*
X16140000Y10340000D03*
X21140000Y10340000D03*
D13*
X10860000Y50400000D03*
X10860000Y45320000D03*
X10860000Y27540000D03*
X10860000Y30080000D03*
X26100000Y30080000D03*
X26100000Y27540000D03*
X26100000Y45320000D03*
X26100000Y50400000D03*
D14*
X8430000Y18370000D03*
X8430000Y20910000D03*
X10970000Y18370000D03*
X10970000Y20910000D03*
X13510000Y18370000D03*
X13510000Y20910000D03*
X16050000Y18370000D03*
X16050000Y20910000D03*
X18590000Y18370000D03*
X18590000Y20910000D03*
X21130000Y18370000D03*
X21130000Y20910000D03*
X23670000Y18370000D03*
X23670000Y20910000D03*
X26210000Y18370000D03*
X26210000Y20910000D03*
X28750000Y18370000D03*
X28750000Y20910000D03*
X31290000Y18370000D03*
X31290000Y20910000D03*
D15*
X31290000Y64090000D03*
D14*
X31290000Y61550000D03*
X28750000Y64090000D03*
X28750000Y61550000D03*
X26210000Y64090000D03*
X26210000Y61550000D03*
X23670000Y64090000D03*
X23670000Y61550000D03*
X21130000Y64090000D03*
X21130000Y61550000D03*
X18590000Y64090000D03*
X18590000Y61550000D03*
X16050000Y64090000D03*
X16050000Y61550000D03*
X13510000Y64090000D03*
X13510000Y61550000D03*
X10970000Y64090000D03*
X10970000Y61550000D03*
X8430000Y64090000D03*
X8430000Y61550000D03*
D16*
X15470000Y52935000D03*
X15470000Y46685000D03*
X20950000Y46745000D03*
X20950000Y52995000D03*
D17*
X10250000Y5000000D03*
X15750000Y5000000D03*
D18*
X3840000Y12800000D03*
X32230000Y4420000D03*
X32680000Y58640000D03*
X10160000Y55680000D03*
D19*
X10250000Y5000000D02*
X10250000Y6390000D01*
X10250000Y6390000D02*
X3840000Y12800000D01*
D20*
X10860000Y30080000D02*
X10830000Y30110000D01*
X10830000Y30110000D02*
X7500000Y30110000D01*
X2790000Y13850000D02*
X3840000Y12800000D01*
X2790000Y25400000D02*
X2790000Y13850000D01*
X7500000Y30110000D02*
X2790000Y25400000D01*
D19*
X3880000Y12760000D02*
X3900000Y12760000D01*
X3840000Y12800000D02*
X3880000Y12760000D01*
X10860000Y30080000D02*
X10860000Y27540000D01*
X21140000Y10340000D02*
X26310000Y10340000D01*
X26310000Y10340000D02*
X32230000Y4420000D01*
X1000000Y10300000D02*
X1000000Y7000000D01*
X1000000Y10300000D02*
X1000000Y26900000D01*
X1000000Y26900000D02*
X7430000Y33330000D01*
X7430000Y33330000D02*
X13790000Y33330000D01*
X13790000Y33330000D02*
X19580000Y27540000D01*
X26100000Y27540000D02*
X19580000Y27540000D01*
X21140000Y3140000D02*
X21140000Y10340000D01*
X20000000Y2000000D02*
X21140000Y3140000D01*
X6000000Y2000000D02*
X20000000Y2000000D01*
X1000000Y7000000D02*
X6000000Y2000000D01*
X26100000Y27540000D02*
X26100000Y30080000D01*
X15470000Y55170000D02*
X15470000Y52935000D01*
X18940000Y58640000D02*
X15470000Y55170000D01*
X32680000Y58640000D02*
X18940000Y58640000D01*
X13395000Y52935000D02*
X10860000Y50400000D01*
X15470000Y52935000D02*
X13395000Y52935000D01*
X9290000Y45320000D02*
X10860000Y45320000D01*
X6810000Y47800000D02*
X9290000Y45320000D01*
X6810000Y52330000D02*
X6810000Y47800000D01*
X10160000Y55680000D02*
X6810000Y52330000D01*
X15470000Y46685000D02*
X20890000Y46685000D01*
X20890000Y46685000D02*
X20950000Y46745000D01*
X10860000Y45320000D02*
X14105000Y45320000D01*
X14105000Y45320000D02*
X15470000Y46685000D01*
X26100000Y45320000D02*
X22375000Y45320000D01*
X22375000Y45320000D02*
X20950000Y46745000D01*
X20950000Y52995000D02*
X23505000Y52995000D01*
X23505000Y52995000D02*
X26100000Y50400000D01*
X29610000Y55680000D02*
X29610000Y53910000D01*
X29610000Y53910000D02*
X26100000Y50400000D01*
X26100000Y50400000D02*
X26150000Y50450000D01*
X16140000Y10340000D02*
X16140000Y5390000D01*
X16140000Y5390000D02*
X15750000Y5000000D01*
D21*
G36*
X7311582Y65766997D02*
X6754958Y65211343D01*
X6453344Y64484975D01*
X6452657Y63698476D01*
X6753003Y62971582D01*
X6904098Y62820223D01*
X6754958Y62671343D01*
X6453344Y61944975D01*
X6452657Y61158476D01*
X6753003Y60431582D01*
X7308657Y59874958D01*
X8035025Y59573344D01*
X8821524Y59572657D01*
X9548418Y59873003D01*
X9699777Y60024098D01*
X9848657Y59874958D01*
X10575025Y59573344D01*
X11361524Y59572657D01*
X12088418Y59873003D01*
X12239777Y60024098D01*
X12388657Y59874958D01*
X13115025Y59573344D01*
X13901524Y59572657D01*
X14628418Y59873003D01*
X14779777Y60024098D01*
X14928657Y59874958D01*
X15655025Y59573344D01*
X16441524Y59572657D01*
X17168418Y59873003D01*
X17319777Y60024098D01*
X17468657Y59874958D01*
X17505275Y59859753D01*
X14142761Y56497239D01*
X13735878Y55888297D01*
X13724340Y55830290D01*
X13418781Y55633669D01*
X13161452Y55257056D01*
X13070921Y54810000D01*
X13070921Y54747537D01*
X12704700Y54674691D01*
X12676703Y54669122D01*
X12067760Y54262239D01*
X10332522Y52527000D01*
X10308534Y52527000D01*
X9494566Y52365092D01*
X8804518Y51904016D01*
X8343442Y51213968D01*
X8181534Y50400000D01*
X8343442Y49586032D01*
X8804518Y48895984D01*
X9494566Y48434908D01*
X10308534Y48273000D01*
X11411466Y48273000D01*
X12225434Y48434908D01*
X12601681Y48686309D01*
X13585000Y48686309D01*
X13585000Y46970750D01*
X13743750Y46812000D01*
X15343000Y46812000D01*
X15343000Y49036250D01*
X15597000Y49036250D01*
X15597000Y46812000D01*
X17196250Y46812000D01*
X17355000Y46970750D01*
X17355000Y48686309D01*
X17330148Y48746309D01*
X19065000Y48746309D01*
X19065000Y47030750D01*
X19223750Y46872000D01*
X20823000Y46872000D01*
X20823000Y49096250D01*
X21077000Y49096250D01*
X21077000Y46872000D01*
X22676250Y46872000D01*
X22835000Y47030750D01*
X22835000Y48746309D01*
X22738327Y48979698D01*
X22559699Y49158327D01*
X22326310Y49255000D01*
X21235750Y49255000D01*
X21077000Y49096250D01*
X20823000Y49096250D01*
X20664250Y49255000D01*
X19573690Y49255000D01*
X19340301Y49158327D01*
X19161673Y48979698D01*
X19065000Y48746309D01*
X17330148Y48746309D01*
X17258327Y48919698D01*
X17079699Y49098327D01*
X16846310Y49195000D01*
X15755750Y49195000D01*
X15597000Y49036250D01*
X15343000Y49036250D01*
X15184250Y49195000D01*
X14093690Y49195000D01*
X13860301Y49098327D01*
X13681673Y48919698D01*
X13585000Y48686309D01*
X12601681Y48686309D01*
X12915482Y48895984D01*
X13376558Y49586032D01*
X13496730Y50190181D01*
X13772944Y50001452D01*
X14220000Y49910921D01*
X16720000Y49910921D01*
X17137641Y49989506D01*
X17521219Y50236331D01*
X17778548Y50612944D01*
X17869079Y51060000D01*
X17869079Y54810000D01*
X17852514Y54898036D01*
X19717478Y56763000D01*
X26673617Y56763000D01*
X26621706Y56685309D01*
X26421738Y55680000D01*
X26621706Y54674691D01*
X27061706Y54016184D01*
X26100000Y53054478D01*
X24832239Y54322239D01*
X24223297Y54729122D01*
X23505000Y54872000D01*
X23348703Y54872000D01*
X23270494Y55287641D01*
X23023669Y55671219D01*
X22647056Y55928548D01*
X22200000Y56019079D01*
X19700000Y56019079D01*
X19282359Y55940494D01*
X18898781Y55693669D01*
X18641452Y55317056D01*
X18550921Y54870000D01*
X18550921Y51120000D01*
X18629506Y50702359D01*
X18876331Y50318781D01*
X19252944Y50061452D01*
X19700000Y49970921D01*
X22200000Y49970921D01*
X22617641Y50049506D01*
X23001219Y50296331D01*
X23223651Y50621871D01*
X23425514Y50420008D01*
X23421534Y50400000D01*
X23583442Y49586032D01*
X24044518Y48895984D01*
X24734566Y48434908D01*
X25548534Y48273000D01*
X26651466Y48273000D01*
X27465434Y48434908D01*
X28155482Y48895984D01*
X28616558Y49586032D01*
X28778466Y50400000D01*
X28774486Y50420008D01*
X30937240Y52582761D01*
X31251443Y53053000D01*
X31344122Y53191703D01*
X31383859Y53391473D01*
X32028832Y53822430D01*
X32598294Y54674691D01*
X32798000Y55678683D01*
X32798000Y43127000D01*
X1202000Y43127000D01*
X1202000Y44939566D01*
X8769876Y44939566D01*
X8800856Y44811645D01*
X9114078Y44253683D01*
X9616980Y43858058D01*
X10233000Y43685000D01*
X10733000Y43685000D01*
X10733000Y45193000D01*
X10987000Y45193000D01*
X10987000Y43685000D01*
X11487000Y43685000D01*
X12103020Y43858058D01*
X12605922Y44253683D01*
X12919144Y44811645D01*
X12950124Y44939566D01*
X12830777Y45193000D01*
X10987000Y45193000D01*
X10733000Y45193000D01*
X8889223Y45193000D01*
X8769876Y44939566D01*
X1202000Y44939566D01*
X1202000Y45700434D01*
X8769876Y45700434D01*
X8889223Y45447000D01*
X10733000Y45447000D01*
X10733000Y46955000D01*
X10987000Y46955000D01*
X10987000Y45447000D01*
X12830777Y45447000D01*
X12950124Y45700434D01*
X12919144Y45828355D01*
X12605922Y46386317D01*
X12589483Y46399250D01*
X13585000Y46399250D01*
X13585000Y44683691D01*
X13681673Y44450302D01*
X13860301Y44271673D01*
X14093690Y44175000D01*
X15184250Y44175000D01*
X15343000Y44333750D01*
X15343000Y46558000D01*
X15597000Y46558000D01*
X15597000Y44333750D01*
X15755750Y44175000D01*
X16846310Y44175000D01*
X17079699Y44271673D01*
X17258327Y44450302D01*
X17355000Y44683691D01*
X17355000Y46399250D01*
X17295000Y46459250D01*
X19065000Y46459250D01*
X19065000Y44743691D01*
X19161673Y44510302D01*
X19340301Y44331673D01*
X19573690Y44235000D01*
X20664250Y44235000D01*
X20823000Y44393750D01*
X20823000Y46618000D01*
X21077000Y46618000D01*
X21077000Y44393750D01*
X21235750Y44235000D01*
X22326310Y44235000D01*
X22559699Y44331673D01*
X22738327Y44510302D01*
X22835000Y44743691D01*
X22835000Y44939566D01*
X24009876Y44939566D01*
X24040856Y44811645D01*
X24354078Y44253683D01*
X24856980Y43858058D01*
X25473000Y43685000D01*
X25973000Y43685000D01*
X25973000Y45193000D01*
X26227000Y45193000D01*
X26227000Y43685000D01*
X26727000Y43685000D01*
X27343020Y43858058D01*
X27845922Y44253683D01*
X28159144Y44811645D01*
X28190124Y44939566D01*
X28070777Y45193000D01*
X26227000Y45193000D01*
X25973000Y45193000D01*
X24129223Y45193000D01*
X24009876Y44939566D01*
X22835000Y44939566D01*
X22835000Y45700434D01*
X24009876Y45700434D01*
X24129223Y45447000D01*
X25973000Y45447000D01*
X25973000Y46955000D01*
X26227000Y46955000D01*
X26227000Y45447000D01*
X28070777Y45447000D01*
X28190124Y45700434D01*
X28159144Y45828355D01*
X27845922Y46386317D01*
X27343020Y46781942D01*
X26727000Y46955000D01*
X26227000Y46955000D01*
X25973000Y46955000D01*
X25473000Y46955000D01*
X24856980Y46781942D01*
X24354078Y46386317D01*
X24040856Y45828355D01*
X24009876Y45700434D01*
X22835000Y45700434D01*
X22835000Y46459250D01*
X22676250Y46618000D01*
X21077000Y46618000D01*
X20823000Y46618000D01*
X19223750Y46618000D01*
X19065000Y46459250D01*
X17295000Y46459250D01*
X17196250Y46558000D01*
X15597000Y46558000D01*
X15343000Y46558000D01*
X13743750Y46558000D01*
X13585000Y46399250D01*
X12589483Y46399250D01*
X12103020Y46781942D01*
X11487000Y46955000D01*
X10987000Y46955000D01*
X10733000Y46955000D01*
X10233000Y46955000D01*
X9616980Y46781942D01*
X9114078Y46386317D01*
X8800856Y45828355D01*
X8769876Y45700434D01*
X1202000Y45700434D01*
X1202000Y65798000D01*
X7386615Y65798000D01*
X7311582Y65766997D01*
X7311582Y65766997D01*
G37*
X7311582Y65766997D02*
X6754958Y65211343D01*
X6453344Y64484975D01*
X6452657Y63698476D01*
X6753003Y62971582D01*
X6904098Y62820223D01*
X6754958Y62671343D01*
X6453344Y61944975D01*
X6452657Y61158476D01*
X6753003Y60431582D01*
X7308657Y59874958D01*
X8035025Y59573344D01*
X8821524Y59572657D01*
X9548418Y59873003D01*
X9699777Y60024098D01*
X9848657Y59874958D01*
X10575025Y59573344D01*
X11361524Y59572657D01*
X12088418Y59873003D01*
X12239777Y60024098D01*
X12388657Y59874958D01*
X13115025Y59573344D01*
X13901524Y59572657D01*
X14628418Y59873003D01*
X14779777Y60024098D01*
X14928657Y59874958D01*
X15655025Y59573344D01*
X16441524Y59572657D01*
X17168418Y59873003D01*
X17319777Y60024098D01*
X17468657Y59874958D01*
X17505275Y59859753D01*
X14142761Y56497239D01*
X13735878Y55888297D01*
X13724340Y55830290D01*
X13418781Y55633669D01*
X13161452Y55257056D01*
X13070921Y54810000D01*
X13070921Y54747537D01*
X12704700Y54674691D01*
X12676703Y54669122D01*
X12067760Y54262239D01*
X10332522Y52527000D01*
X10308534Y52527000D01*
X9494566Y52365092D01*
X8804518Y51904016D01*
X8343442Y51213968D01*
X8181534Y50400000D01*
X8343442Y49586032D01*
X8804518Y48895984D01*
X9494566Y48434908D01*
X10308534Y48273000D01*
X11411466Y48273000D01*
X12225434Y48434908D01*
X12601681Y48686309D01*
X13585000Y48686309D01*
X13585000Y46970750D01*
X13743750Y46812000D01*
X15343000Y46812000D01*
X15343000Y49036250D01*
X15597000Y49036250D01*
X15597000Y46812000D01*
X17196250Y46812000D01*
X17355000Y46970750D01*
X17355000Y48686309D01*
X17330148Y48746309D01*
X19065000Y48746309D01*
X19065000Y47030750D01*
X19223750Y46872000D01*
X20823000Y46872000D01*
X20823000Y49096250D01*
X21077000Y49096250D01*
X21077000Y46872000D01*
X22676250Y46872000D01*
X22835000Y47030750D01*
X22835000Y48746309D01*
X22738327Y48979698D01*
X22559699Y49158327D01*
X22326310Y49255000D01*
X21235750Y49255000D01*
X21077000Y49096250D01*
X20823000Y49096250D01*
X20664250Y49255000D01*
X19573690Y49255000D01*
X19340301Y49158327D01*
X19161673Y48979698D01*
X19065000Y48746309D01*
X17330148Y48746309D01*
X17258327Y48919698D01*
X17079699Y49098327D01*
X16846310Y49195000D01*
X15755750Y49195000D01*
X15597000Y49036250D01*
X15343000Y49036250D01*
X15184250Y49195000D01*
X14093690Y49195000D01*
X13860301Y49098327D01*
X13681673Y48919698D01*
X13585000Y48686309D01*
X12601681Y48686309D01*
X12915482Y48895984D01*
X13376558Y49586032D01*
X13496730Y50190181D01*
X13772944Y50001452D01*
X14220000Y49910921D01*
X16720000Y49910921D01*
X17137641Y49989506D01*
X17521219Y50236331D01*
X17778548Y50612944D01*
X17869079Y51060000D01*
X17869079Y54810000D01*
X17852514Y54898036D01*
X19717478Y56763000D01*
X26673617Y56763000D01*
X26621706Y56685309D01*
X26421738Y55680000D01*
X26621706Y54674691D01*
X27061706Y54016184D01*
X26100000Y53054478D01*
X24832239Y54322239D01*
X24223297Y54729122D01*
X23505000Y54872000D01*
X23348703Y54872000D01*
X23270494Y55287641D01*
X23023669Y55671219D01*
X22647056Y55928548D01*
X22200000Y56019079D01*
X19700000Y56019079D01*
X19282359Y55940494D01*
X18898781Y55693669D01*
X18641452Y55317056D01*
X18550921Y54870000D01*
X18550921Y51120000D01*
X18629506Y50702359D01*
X18876331Y50318781D01*
X19252944Y50061452D01*
X19700000Y49970921D01*
X22200000Y49970921D01*
X22617641Y50049506D01*
X23001219Y50296331D01*
X23223651Y50621871D01*
X23425514Y50420008D01*
X23421534Y50400000D01*
X23583442Y49586032D01*
X24044518Y48895984D01*
X24734566Y48434908D01*
X25548534Y48273000D01*
X26651466Y48273000D01*
X27465434Y48434908D01*
X28155482Y48895984D01*
X28616558Y49586032D01*
X28778466Y50400000D01*
X28774486Y50420008D01*
X30937240Y52582761D01*
X31251443Y53053000D01*
X31344122Y53191703D01*
X31383859Y53391473D01*
X32028832Y53822430D01*
X32598294Y54674691D01*
X32798000Y55678683D01*
X32798000Y43127000D01*
X1202000Y43127000D01*
X1202000Y44939566D01*
X8769876Y44939566D01*
X8800856Y44811645D01*
X9114078Y44253683D01*
X9616980Y43858058D01*
X10233000Y43685000D01*
X10733000Y43685000D01*
X10733000Y45193000D01*
X10987000Y45193000D01*
X10987000Y43685000D01*
X11487000Y43685000D01*
X12103020Y43858058D01*
X12605922Y44253683D01*
X12919144Y44811645D01*
X12950124Y44939566D01*
X12830777Y45193000D01*
X10987000Y45193000D01*
X10733000Y45193000D01*
X8889223Y45193000D01*
X8769876Y44939566D01*
X1202000Y44939566D01*
X1202000Y45700434D01*
X8769876Y45700434D01*
X8889223Y45447000D01*
X10733000Y45447000D01*
X10733000Y46955000D01*
X10987000Y46955000D01*
X10987000Y45447000D01*
X12830777Y45447000D01*
X12950124Y45700434D01*
X12919144Y45828355D01*
X12605922Y46386317D01*
X12589483Y46399250D01*
X13585000Y46399250D01*
X13585000Y44683691D01*
X13681673Y44450302D01*
X13860301Y44271673D01*
X14093690Y44175000D01*
X15184250Y44175000D01*
X15343000Y44333750D01*
X15343000Y46558000D01*
X15597000Y46558000D01*
X15597000Y44333750D01*
X15755750Y44175000D01*
X16846310Y44175000D01*
X17079699Y44271673D01*
X17258327Y44450302D01*
X17355000Y44683691D01*
X17355000Y46399250D01*
X17295000Y46459250D01*
X19065000Y46459250D01*
X19065000Y44743691D01*
X19161673Y44510302D01*
X19340301Y44331673D01*
X19573690Y44235000D01*
X20664250Y44235000D01*
X20823000Y44393750D01*
X20823000Y46618000D01*
X21077000Y46618000D01*
X21077000Y44393750D01*
X21235750Y44235000D01*
X22326310Y44235000D01*
X22559699Y44331673D01*
X22738327Y44510302D01*
X22835000Y44743691D01*
X22835000Y44939566D01*
X24009876Y44939566D01*
X24040856Y44811645D01*
X24354078Y44253683D01*
X24856980Y43858058D01*
X25473000Y43685000D01*
X25973000Y43685000D01*
X25973000Y45193000D01*
X26227000Y45193000D01*
X26227000Y43685000D01*
X26727000Y43685000D01*
X27343020Y43858058D01*
X27845922Y44253683D01*
X28159144Y44811645D01*
X28190124Y44939566D01*
X28070777Y45193000D01*
X26227000Y45193000D01*
X25973000Y45193000D01*
X24129223Y45193000D01*
X24009876Y44939566D01*
X22835000Y44939566D01*
X22835000Y45700434D01*
X24009876Y45700434D01*
X24129223Y45447000D01*
X25973000Y45447000D01*
X25973000Y46955000D01*
X26227000Y46955000D01*
X26227000Y45447000D01*
X28070777Y45447000D01*
X28190124Y45700434D01*
X28159144Y45828355D01*
X27845922Y46386317D01*
X27343020Y46781942D01*
X26727000Y46955000D01*
X26227000Y46955000D01*
X25973000Y46955000D01*
X25473000Y46955000D01*
X24856980Y46781942D01*
X24354078Y46386317D01*
X24040856Y45828355D01*
X24009876Y45700434D01*
X22835000Y45700434D01*
X22835000Y46459250D01*
X22676250Y46618000D01*
X21077000Y46618000D01*
X20823000Y46618000D01*
X19223750Y46618000D01*
X19065000Y46459250D01*
X17295000Y46459250D01*
X17196250Y46558000D01*
X15597000Y46558000D01*
X15343000Y46558000D01*
X13743750Y46558000D01*
X13585000Y46399250D01*
X12589483Y46399250D01*
X12103020Y46781942D01*
X11487000Y46955000D01*
X10987000Y46955000D01*
X10733000Y46955000D01*
X10233000Y46955000D01*
X9616980Y46781942D01*
X9114078Y46386317D01*
X8800856Y45828355D01*
X8769876Y45700434D01*
X1202000Y45700434D01*
X1202000Y65798000D01*
X7386615Y65798000D01*
X7311582Y65766997D01*
G36*
X28943748Y61564142D02*
X28929605Y61550000D01*
X28943748Y61535857D01*
X28764143Y61356252D01*
X28750000Y61370395D01*
X28735858Y61356252D01*
X28556253Y61535857D01*
X28570395Y61550000D01*
X28556253Y61564142D01*
X28735858Y61743747D01*
X28750000Y61729605D01*
X28764143Y61743747D01*
X28943748Y61564142D01*
X28943748Y61564142D01*
G37*
X28943748Y61564142D02*
X28929605Y61550000D01*
X28943748Y61535857D01*
X28764143Y61356252D01*
X28750000Y61370395D01*
X28735858Y61356252D01*
X28556253Y61535857D01*
X28570395Y61550000D01*
X28556253Y61564142D01*
X28735858Y61743747D01*
X28750000Y61729605D01*
X28764143Y61743747D01*
X28943748Y61564142D01*
M02*
