G04 #@! TF.FileFunction,Copper,L1,Top,Signal*
%FSLAX46Y46*%
G04 Gerber Fmt 4.6, Leading zero omitted, Abs format (unit mm)*
G04 Created by KiCad (PCBNEW 4.0.6+dfsg1-1) date Fri May  4 13:32:45 2018*
%MOMM*%
%LPD*%
G01*
G04 APERTURE LIST*
%ADD10C,0.100000*%
%ADD11C,0.300000*%
%ADD12R,2.500000X3.750000*%
%ADD13O,4.000000X3.000000*%
%ADD14O,3.000000X4.000000*%
%ADD15O,3.000000X2.000000*%
%ADD16C,1.700000*%
%ADD17R,1.700000X1.700000*%
%ADD18C,2.000000*%
%ADD19C,1.500000*%
%ADD20C,0.254000*%
G04 APERTURE END LIST*
D10*
D11*
X20338571Y2635715D02*
X20338571Y2778572D01*
X20410000Y2921429D01*
X20481429Y2992858D01*
X20624286Y3064287D01*
X20910000Y3135715D01*
X21267143Y3135715D01*
X21552857Y3064287D01*
X21695714Y2992858D01*
X21767143Y2921429D01*
X21838571Y2778572D01*
X21838571Y2635715D01*
X21767143Y2492858D01*
X21695714Y2421429D01*
X21552857Y2350001D01*
X21267143Y2278572D01*
X20910000Y2278572D01*
X20624286Y2350001D01*
X20481429Y2421429D01*
X20410000Y2492858D01*
X20338571Y2635715D01*
X20338571Y3564286D02*
X21838571Y4064286D01*
X20338571Y4564286D01*
X15851429Y894286D02*
X15780000Y965715D01*
X15708571Y1108572D01*
X15708571Y1465715D01*
X15780000Y1608572D01*
X15851429Y1680001D01*
X15994286Y1751429D01*
X16137143Y1751429D01*
X16351429Y1680001D01*
X17208571Y822858D01*
X17208571Y1751429D01*
X16208571Y3037143D02*
X17208571Y3037143D01*
X15637143Y2680000D02*
X16708571Y2322857D01*
X16708571Y3251429D01*
X15708571Y3608571D02*
X17208571Y4108571D01*
X15708571Y4608571D01*
X21071429Y55892857D02*
X22214286Y55892857D01*
X23642858Y56821429D02*
X22928572Y56821429D01*
X22857143Y56107143D01*
X22928572Y56178571D01*
X23071429Y56250000D01*
X23428572Y56250000D01*
X23571429Y56178571D01*
X23642858Y56107143D01*
X23714286Y55964286D01*
X23714286Y55607143D01*
X23642858Y55464286D01*
X23571429Y55392857D01*
X23428572Y55321429D01*
X23071429Y55321429D01*
X22928572Y55392857D01*
X22857143Y55464286D01*
X24142857Y56821429D02*
X24642857Y55321429D01*
X25142857Y56821429D01*
D12*
X8930000Y4415000D03*
X8930000Y10665000D03*
D13*
X29610000Y55680000D03*
D14*
X16140000Y10340000D03*
X21140000Y10340000D03*
D15*
X10860000Y50400000D03*
X10860000Y45320000D03*
X10860000Y27540000D03*
X10860000Y30080000D03*
X26100000Y30080000D03*
X26100000Y27540000D03*
X26100000Y45320000D03*
X26100000Y50400000D03*
D16*
X8430000Y18370000D03*
X8430000Y20910000D03*
X10970000Y18370000D03*
X10970000Y20910000D03*
X13510000Y18370000D03*
X13510000Y20910000D03*
X16050000Y18370000D03*
X16050000Y20910000D03*
X18590000Y18370000D03*
X18590000Y20910000D03*
X21130000Y18370000D03*
X21130000Y20910000D03*
X23670000Y18370000D03*
X23670000Y20910000D03*
X26210000Y18370000D03*
X26210000Y20910000D03*
X28750000Y18370000D03*
X28750000Y20910000D03*
X31290000Y18370000D03*
X31290000Y20910000D03*
D17*
X31290000Y64090000D03*
D16*
X31290000Y61550000D03*
X28750000Y64090000D03*
X28750000Y61550000D03*
X26210000Y64090000D03*
X26210000Y61550000D03*
X23670000Y64090000D03*
X23670000Y61550000D03*
X21130000Y64090000D03*
X21130000Y61550000D03*
X18590000Y64090000D03*
X18590000Y61550000D03*
X16050000Y64090000D03*
X16050000Y61550000D03*
X13510000Y64090000D03*
X13510000Y61550000D03*
X10970000Y64090000D03*
X10970000Y61550000D03*
X8430000Y64090000D03*
X8430000Y61550000D03*
D12*
X28090000Y10555000D03*
X28090000Y4305000D03*
D18*
X3840000Y12800000D03*
X32230000Y4420000D03*
X32680000Y58640000D03*
X10160000Y55680000D03*
D19*
X8930000Y4415000D02*
X6445000Y4415000D01*
X3840000Y7020000D02*
X3840000Y12800000D01*
X6445000Y4415000D02*
X3840000Y7020000D01*
X32115000Y4305000D02*
X28090000Y4305000D01*
X32230000Y4420000D02*
X32115000Y4305000D01*
X31290000Y60030000D02*
X32680000Y58640000D01*
X31290000Y61550000D02*
X31290000Y60030000D01*
X13120000Y58640000D02*
X10160000Y55680000D01*
X27120000Y58640000D02*
X13120000Y58640000D01*
X28750000Y60270000D02*
X27120000Y58640000D01*
X28750000Y61550000D02*
X28750000Y60270000D01*
X28090000Y10555000D02*
X27305000Y10555000D01*
X27305000Y10555000D02*
X22950000Y6200000D01*
X22950000Y6200000D02*
X14500000Y6200000D01*
X14500000Y6200000D02*
X10035000Y10665000D01*
X10035000Y10665000D02*
X8930000Y10665000D01*
D20*
G36*
X7311582Y65766997D02*
X6754958Y65211343D01*
X6453344Y64484975D01*
X6452657Y63698476D01*
X6753003Y62971582D01*
X6904098Y62820223D01*
X6754958Y62671343D01*
X6453344Y61944975D01*
X6452657Y61158476D01*
X6753003Y60431582D01*
X7308657Y59874958D01*
X8035025Y59573344D01*
X8821524Y59572657D01*
X9548418Y59873003D01*
X9699777Y60024098D01*
X9848657Y59874958D01*
X10575025Y59573344D01*
X11361524Y59572657D01*
X12088418Y59873003D01*
X12239777Y60024098D01*
X12388657Y59874958D01*
X13115025Y59573344D01*
X13901524Y59572657D01*
X14628418Y59873003D01*
X14779777Y60024098D01*
X14928657Y59874958D01*
X15655025Y59573344D01*
X16441524Y59572657D01*
X17168418Y59873003D01*
X17319777Y60024098D01*
X17468657Y59874958D01*
X18195025Y59573344D01*
X18981524Y59572657D01*
X19708418Y59873003D01*
X19859777Y60024098D01*
X20008657Y59874958D01*
X20735025Y59573344D01*
X21521524Y59572657D01*
X22248418Y59873003D01*
X22399777Y60024098D01*
X22548657Y59874958D01*
X23275025Y59573344D01*
X24061524Y59572657D01*
X24788418Y59873003D01*
X24939777Y60024098D01*
X25088657Y59874958D01*
X25815025Y59573344D01*
X26601524Y59572657D01*
X27328418Y59873003D01*
X27885042Y60428657D01*
X27899355Y60463127D01*
X27965920Y60254741D01*
X28521279Y60053282D01*
X29111458Y60079685D01*
X29413000Y60204588D01*
X29413000Y60030000D01*
X29503971Y59572657D01*
X29555878Y59311703D01*
X29962761Y58702761D01*
X30405019Y58260503D01*
X30171262Y58307000D01*
X29048738Y58307000D01*
X28043429Y58107032D01*
X27191168Y57537570D01*
X26621706Y56685309D01*
X26421738Y55680000D01*
X26621706Y54674691D01*
X27191168Y53822430D01*
X28043429Y53252968D01*
X29048738Y53053000D01*
X30171262Y53053000D01*
X31176571Y53252968D01*
X32028832Y53822430D01*
X32598294Y54674691D01*
X32798000Y55678683D01*
X32798000Y43127000D01*
X1202000Y43127000D01*
X1202000Y44939566D01*
X8769876Y44939566D01*
X8800856Y44811645D01*
X9114078Y44253683D01*
X9616980Y43858058D01*
X10233000Y43685000D01*
X10733000Y43685000D01*
X10733000Y45193000D01*
X10987000Y45193000D01*
X10987000Y43685000D01*
X11487000Y43685000D01*
X12103020Y43858058D01*
X12605922Y44253683D01*
X12919144Y44811645D01*
X12950124Y44939566D01*
X24009876Y44939566D01*
X24040856Y44811645D01*
X24354078Y44253683D01*
X24856980Y43858058D01*
X25473000Y43685000D01*
X25973000Y43685000D01*
X25973000Y45193000D01*
X26227000Y45193000D01*
X26227000Y43685000D01*
X26727000Y43685000D01*
X27343020Y43858058D01*
X27845922Y44253683D01*
X28159144Y44811645D01*
X28190124Y44939566D01*
X28070777Y45193000D01*
X26227000Y45193000D01*
X25973000Y45193000D01*
X24129223Y45193000D01*
X24009876Y44939566D01*
X12950124Y44939566D01*
X12830777Y45193000D01*
X10987000Y45193000D01*
X10733000Y45193000D01*
X8889223Y45193000D01*
X8769876Y44939566D01*
X1202000Y44939566D01*
X1202000Y45700434D01*
X8769876Y45700434D01*
X8889223Y45447000D01*
X10733000Y45447000D01*
X10733000Y46955000D01*
X10987000Y46955000D01*
X10987000Y45447000D01*
X12830777Y45447000D01*
X12950124Y45700434D01*
X24009876Y45700434D01*
X24129223Y45447000D01*
X25973000Y45447000D01*
X25973000Y46955000D01*
X26227000Y46955000D01*
X26227000Y45447000D01*
X28070777Y45447000D01*
X28190124Y45700434D01*
X28159144Y45828355D01*
X27845922Y46386317D01*
X27343020Y46781942D01*
X26727000Y46955000D01*
X26227000Y46955000D01*
X25973000Y46955000D01*
X25473000Y46955000D01*
X24856980Y46781942D01*
X24354078Y46386317D01*
X24040856Y45828355D01*
X24009876Y45700434D01*
X12950124Y45700434D01*
X12919144Y45828355D01*
X12605922Y46386317D01*
X12103020Y46781942D01*
X11487000Y46955000D01*
X10987000Y46955000D01*
X10733000Y46955000D01*
X10233000Y46955000D01*
X9616980Y46781942D01*
X9114078Y46386317D01*
X8800856Y45828355D01*
X8769876Y45700434D01*
X1202000Y45700434D01*
X1202000Y50400000D01*
X8181534Y50400000D01*
X8343442Y49586032D01*
X8804518Y48895984D01*
X9494566Y48434908D01*
X10308534Y48273000D01*
X11411466Y48273000D01*
X12225434Y48434908D01*
X12915482Y48895984D01*
X13376558Y49586032D01*
X13538466Y50400000D01*
X23421534Y50400000D01*
X23583442Y49586032D01*
X24044518Y48895984D01*
X24734566Y48434908D01*
X25548534Y48273000D01*
X26651466Y48273000D01*
X27465434Y48434908D01*
X28155482Y48895984D01*
X28616558Y49586032D01*
X28778466Y50400000D01*
X28616558Y51213968D01*
X28155482Y51904016D01*
X27465434Y52365092D01*
X26651466Y52527000D01*
X25548534Y52527000D01*
X24734566Y52365092D01*
X24044518Y51904016D01*
X23583442Y51213968D01*
X23421534Y50400000D01*
X13538466Y50400000D01*
X13376558Y51213968D01*
X12915482Y51904016D01*
X12225434Y52365092D01*
X11411466Y52527000D01*
X10308534Y52527000D01*
X9494566Y52365092D01*
X8804518Y51904016D01*
X8343442Y51213968D01*
X8181534Y50400000D01*
X1202000Y50400000D01*
X1202000Y58327000D01*
X19587286Y58327000D01*
X19587286Y53523000D01*
X26412714Y53523000D01*
X26412714Y58327000D01*
X19587286Y58327000D01*
X1202000Y58327000D01*
X1202000Y65798000D01*
X7386615Y65798000D01*
X7311582Y65766997D01*
X7311582Y65766997D01*
G37*
X7311582Y65766997D02*
X6754958Y65211343D01*
X6453344Y64484975D01*
X6452657Y63698476D01*
X6753003Y62971582D01*
X6904098Y62820223D01*
X6754958Y62671343D01*
X6453344Y61944975D01*
X6452657Y61158476D01*
X6753003Y60431582D01*
X7308657Y59874958D01*
X8035025Y59573344D01*
X8821524Y59572657D01*
X9548418Y59873003D01*
X9699777Y60024098D01*
X9848657Y59874958D01*
X10575025Y59573344D01*
X11361524Y59572657D01*
X12088418Y59873003D01*
X12239777Y60024098D01*
X12388657Y59874958D01*
X13115025Y59573344D01*
X13901524Y59572657D01*
X14628418Y59873003D01*
X14779777Y60024098D01*
X14928657Y59874958D01*
X15655025Y59573344D01*
X16441524Y59572657D01*
X17168418Y59873003D01*
X17319777Y60024098D01*
X17468657Y59874958D01*
X18195025Y59573344D01*
X18981524Y59572657D01*
X19708418Y59873003D01*
X19859777Y60024098D01*
X20008657Y59874958D01*
X20735025Y59573344D01*
X21521524Y59572657D01*
X22248418Y59873003D01*
X22399777Y60024098D01*
X22548657Y59874958D01*
X23275025Y59573344D01*
X24061524Y59572657D01*
X24788418Y59873003D01*
X24939777Y60024098D01*
X25088657Y59874958D01*
X25815025Y59573344D01*
X26601524Y59572657D01*
X27328418Y59873003D01*
X27885042Y60428657D01*
X27899355Y60463127D01*
X27965920Y60254741D01*
X28521279Y60053282D01*
X29111458Y60079685D01*
X29413000Y60204588D01*
X29413000Y60030000D01*
X29503971Y59572657D01*
X29555878Y59311703D01*
X29962761Y58702761D01*
X30405019Y58260503D01*
X30171262Y58307000D01*
X29048738Y58307000D01*
X28043429Y58107032D01*
X27191168Y57537570D01*
X26621706Y56685309D01*
X26421738Y55680000D01*
X26621706Y54674691D01*
X27191168Y53822430D01*
X28043429Y53252968D01*
X29048738Y53053000D01*
X30171262Y53053000D01*
X31176571Y53252968D01*
X32028832Y53822430D01*
X32598294Y54674691D01*
X32798000Y55678683D01*
X32798000Y43127000D01*
X1202000Y43127000D01*
X1202000Y44939566D01*
X8769876Y44939566D01*
X8800856Y44811645D01*
X9114078Y44253683D01*
X9616980Y43858058D01*
X10233000Y43685000D01*
X10733000Y43685000D01*
X10733000Y45193000D01*
X10987000Y45193000D01*
X10987000Y43685000D01*
X11487000Y43685000D01*
X12103020Y43858058D01*
X12605922Y44253683D01*
X12919144Y44811645D01*
X12950124Y44939566D01*
X24009876Y44939566D01*
X24040856Y44811645D01*
X24354078Y44253683D01*
X24856980Y43858058D01*
X25473000Y43685000D01*
X25973000Y43685000D01*
X25973000Y45193000D01*
X26227000Y45193000D01*
X26227000Y43685000D01*
X26727000Y43685000D01*
X27343020Y43858058D01*
X27845922Y44253683D01*
X28159144Y44811645D01*
X28190124Y44939566D01*
X28070777Y45193000D01*
X26227000Y45193000D01*
X25973000Y45193000D01*
X24129223Y45193000D01*
X24009876Y44939566D01*
X12950124Y44939566D01*
X12830777Y45193000D01*
X10987000Y45193000D01*
X10733000Y45193000D01*
X8889223Y45193000D01*
X8769876Y44939566D01*
X1202000Y44939566D01*
X1202000Y45700434D01*
X8769876Y45700434D01*
X8889223Y45447000D01*
X10733000Y45447000D01*
X10733000Y46955000D01*
X10987000Y46955000D01*
X10987000Y45447000D01*
X12830777Y45447000D01*
X12950124Y45700434D01*
X24009876Y45700434D01*
X24129223Y45447000D01*
X25973000Y45447000D01*
X25973000Y46955000D01*
X26227000Y46955000D01*
X26227000Y45447000D01*
X28070777Y45447000D01*
X28190124Y45700434D01*
X28159144Y45828355D01*
X27845922Y46386317D01*
X27343020Y46781942D01*
X26727000Y46955000D01*
X26227000Y46955000D01*
X25973000Y46955000D01*
X25473000Y46955000D01*
X24856980Y46781942D01*
X24354078Y46386317D01*
X24040856Y45828355D01*
X24009876Y45700434D01*
X12950124Y45700434D01*
X12919144Y45828355D01*
X12605922Y46386317D01*
X12103020Y46781942D01*
X11487000Y46955000D01*
X10987000Y46955000D01*
X10733000Y46955000D01*
X10233000Y46955000D01*
X9616980Y46781942D01*
X9114078Y46386317D01*
X8800856Y45828355D01*
X8769876Y45700434D01*
X1202000Y45700434D01*
X1202000Y50400000D01*
X8181534Y50400000D01*
X8343442Y49586032D01*
X8804518Y48895984D01*
X9494566Y48434908D01*
X10308534Y48273000D01*
X11411466Y48273000D01*
X12225434Y48434908D01*
X12915482Y48895984D01*
X13376558Y49586032D01*
X13538466Y50400000D01*
X23421534Y50400000D01*
X23583442Y49586032D01*
X24044518Y48895984D01*
X24734566Y48434908D01*
X25548534Y48273000D01*
X26651466Y48273000D01*
X27465434Y48434908D01*
X28155482Y48895984D01*
X28616558Y49586032D01*
X28778466Y50400000D01*
X28616558Y51213968D01*
X28155482Y51904016D01*
X27465434Y52365092D01*
X26651466Y52527000D01*
X25548534Y52527000D01*
X24734566Y52365092D01*
X24044518Y51904016D01*
X23583442Y51213968D01*
X23421534Y50400000D01*
X13538466Y50400000D01*
X13376558Y51213968D01*
X12915482Y51904016D01*
X12225434Y52365092D01*
X11411466Y52527000D01*
X10308534Y52527000D01*
X9494566Y52365092D01*
X8804518Y51904016D01*
X8343442Y51213968D01*
X8181534Y50400000D01*
X1202000Y50400000D01*
X1202000Y58327000D01*
X19587286Y58327000D01*
X19587286Y53523000D01*
X26412714Y53523000D01*
X26412714Y58327000D01*
X19587286Y58327000D01*
X1202000Y58327000D01*
X1202000Y65798000D01*
X7386615Y65798000D01*
X7311582Y65766997D01*
G36*
X28943748Y61564142D02*
X28929605Y61550000D01*
X28943748Y61535857D01*
X28764143Y61356252D01*
X28750000Y61370395D01*
X28735858Y61356252D01*
X28556253Y61535857D01*
X28570395Y61550000D01*
X28556253Y61564142D01*
X28735858Y61743747D01*
X28750000Y61729605D01*
X28764143Y61743747D01*
X28943748Y61564142D01*
X28943748Y61564142D01*
G37*
X28943748Y61564142D02*
X28929605Y61550000D01*
X28943748Y61535857D01*
X28764143Y61356252D01*
X28750000Y61370395D01*
X28735858Y61356252D01*
X28556253Y61535857D01*
X28570395Y61550000D01*
X28556253Y61564142D01*
X28735858Y61743747D01*
X28750000Y61729605D01*
X28764143Y61743747D01*
X28943748Y61564142D01*
M02*
