  0
SECTION
  2
HEADER
  9
$ANGBASE
  50
0.0
  9
$ANGDIR
  70
  1
  9
$MEASUREMENT
  70
0
  0
ENDSEC
  0
SECTION
  2
TABLES
  0
TABLE
  2
LTYPE
  70
1
  0
LTYPE
  2
CONTINUOUS
  70
0
  3
Solid line
  72
65
  73
0
  40
0.0
  0
ENDTAB
  0
TABLE
  2
STYLE
  70
4
  0
STYLE
  2
KICAD
  70
0
  40
0
  41
1
  42
1
  50
0
  71
0
  3
isocp.shx
  0
STYLE
  2
KICADB
  70
0
  40
0
  41
1
  42
1
  50
0
  71
0
  3
isocp.shx
  0
STYLE
  2
KICADI
  70
0
  40
0
  41
1
  42
1
  50
15
  71
0
  3
isocp.shx
  0
STYLE
  2
KICADBI
  70
0
  40
0
  41
1
  42
1
  50
15
  71
0
  3
isocp.shx
  0
ENDTAB
  0
TABLE
  2
LAYER
  70
30
  0
LAYER
  2
BLACK
  70
0
  62
7
  6
CONTINUOUS
  0
LAYER
  2
GRAY1
  70
0
  62
251
  6
CONTINUOUS
  0
LAYER
  2
GRAY2
  70
0
  62
8
  6
CONTINUOUS
  0
LAYER
  2
GRAY3
  70
0
  62
9
  6
CONTINUOUS
  0
LAYER
  2
WHITE
  70
0
  62
7
  6
CONTINUOUS
  0
LAYER
  2
LYELLOW
  70
0
  62
51
  6
CONTINUOUS
  0
LAYER
  2
BLUE1
  70
0
  62
178
  6
CONTINUOUS
  0
LAYER
  2
GREEN1
  70
0
  62
98
  6
CONTINUOUS
  0
LAYER
  2
CYAN1
  70
0
  62
138
  6
CONTINUOUS
  0
LAYER
  2
RED1
  70
0
  62
18
  6
CONTINUOUS
  0
LAYER
  2
MAGENTA1
  70
0
  62
228
  6
CONTINUOUS
  0
LAYER
  2
BROWN1
  70
0
  62
58
  6
CONTINUOUS
  0
LAYER
  2
BLUE2
  70
0
  62
5
  6
CONTINUOUS
  0
LAYER
  2
GREEN2
  70
0
  62
3
  6
CONTINUOUS
  0
LAYER
  2
CYAN2
  70
0
  62
4
  6
CONTINUOUS
  0
LAYER
  2
RED2
  70
0
  62
1
  6
CONTINUOUS
  0
LAYER
  2
MAGENTA2
  70
0
  62
6
  6
CONTINUOUS
  0
LAYER
  2
BROWN2
  70
0
  62
54
  6
CONTINUOUS
  0
LAYER
  2
BLUE3
  70
0
  62
171
  6
CONTINUOUS
  0
LAYER
  2
GREEN3
  70
0
  62
91
  6
CONTINUOUS
  0
LAYER
  2
CYAN3
  70
0
  62
131
  6
CONTINUOUS
  0
LAYER
  2
RED3
  70
0
  62
11
  6
CONTINUOUS
  0
LAYER
  2
MAGENTA3
  70
0
  62
221
  6
CONTINUOUS
  0
LAYER
  2
YELLOW3
  70
0
  62
2
  6
CONTINUOUS
  0
LAYER
  2
BLUE4
  70
0
  62
5
  6
CONTINUOUS
  0
LAYER
  2
GREEN4
  70
0
  62
3
  6
CONTINUOUS
  0
LAYER
  2
CYAN4
  70
0
  62
4
  6
CONTINUOUS
  0
LAYER
  2
RED4
  70
0
  62
1
  6
CONTINUOUS
  0
LAYER
  2
MAGENTA4
  70
0
  62
6
  6
CONTINUOUS
  0
LAYER
  2
YELLOW4
  70
0
  62
2
  6
CONTINUOUS
  0
ENDTAB
  0
ENDSEC
  0
SECTION
  2
ENTITIES
0
LINE
8
Black
10
0.000648
20
6.78492
11
0.000868
21
6.78492
0
LINE
8
Black
10
0.000868
20
6.78492
11
0.001484
21
6.7847
0
LINE
8
Black
10
0.001484
20
6.7847
11
0.002113
21
6.78453
0
LINE
8
Black
10
0.002113
20
6.78453
11
0.002292
21
6.78441
0
LINE
8
Black
10
0.002292
20
6.78441
11
0.0025
21
6.78433
0
LINE
8
Black
10
0.0025
20
6.78433
11
0.002998
21
6.78391
0
LINE
8
Black
10
0.002998
20
6.78391
11
0.003536
21
6.78354
0
LINE
8
Black
10
0.003536
20
6.78354
11
6.77354
21
0.013535
0
LINE
8
Black
10
6.77354
20
0.013535
11
6.77453
21
0.012113
0
LINE
8
Black
10
6.77453
20
0.012113
11
6.77498
21
0.010435
0
LINE
8
Black
10
6.77498
20
0.010435
11
6.77483
21
0.008706
0
LINE
8
Black
10
6.77483
20
0.008706
11
6.7741
21
0.007132
0
LINE
8
Black
10
6.7741
20
0.007132
11
6.77287
21
0.005904
0
LINE
8
Black
10
6.77287
20
0.005904
11
6.77129
21
0.00517
0
LINE
8
Black
10
6.77129
20
0.00517
11
6.76957
21
0.005019
0
LINE
8
Black
10
6.76957
20
0.005019
11
6.76789
21
0.005469
0
LINE
8
Black
10
6.76789
20
0.005469
11
6.76646
21
0.006464
0
LINE
8
Black
10
6.76646
20
0.006464
11
0.005
21
6.76793
0
LINE
8
Black
10
0.005
20
6.76793
11
0.005
21
0.005
0
LINE
8
Black
10
0.005
20
0.005
11
6.77
21
0.005
0
LINE
8
Black
10
6.77
20
0.005
11
6.77171
21
0.004698
0
LINE
8
Black
10
6.77171
20
0.004698
11
6.77321
21
0.00383
0
LINE
8
Black
10
6.77321
20
0.00383
11
6.77433
21
0.0025
0
LINE
8
Black
10
6.77433
20
0.0025
11
6.77492
21
0.000868
0
LINE
8
Black
10
6.77492
20
0.000868
11
6.77492
21
-0.000868
0
LINE
8
Black
10
6.77492
20
-0.000868
11
6.77433
21
-0.0025
0
LINE
8
Black
10
6.77433
20
-0.0025
11
6.77321
21
-0.00383
0
LINE
8
Black
10
6.77321
20
-0.00383
11
6.77171
21
-0.004698
0
LINE
8
Black
10
6.77171
20
-0.004698
11
6.77
21
-0.005
0
LINE
8
Black
10
6.77
20
-0.005
11
0
21
-0.005
0
LINE
8
Black
10
0
20
-0.005
11
-0.00043
21
-0.004924
0
LINE
8
Black
10
-0.00043
20
-0.004924
11
-0.000868
21
-0.004924
0
LINE
8
Black
10
-0.000868
20
-0.004924
11
-0.001281
21
-0.004774
0
LINE
8
Black
10
-0.001281
20
-0.004774
11
-0.00171
21
-0.004698
0
LINE
8
Black
10
-0.00171
20
-0.004698
11
-0.002087
21
-0.00448
0
LINE
8
Black
10
-0.002087
20
-0.00448
11
-0.0025
21
-0.00433
0
LINE
8
Black
10
-0.0025
20
-0.00433
11
-0.002836
21
-0.004048
0
LINE
8
Black
10
-0.002836
20
-0.004048
11
-0.003214
21
-0.00383
0
LINE
8
Black
10
-0.003214
20
-0.00383
11
-0.003495
21
-0.003495
0
LINE
8
Black
10
-0.003495
20
-0.003495
11
-0.00383
21
-0.003214
0
LINE
8
Black
10
-0.00383
20
-0.003214
11
-0.004048
21
-0.002836
0
LINE
8
Black
10
-0.004048
20
-0.002836
11
-0.00433
21
-0.0025
0
LINE
8
Black
10
-0.00433
20
-0.0025
11
-0.00448
21
-0.002087
0
LINE
8
Black
10
-0.00448
20
-0.002087
11
-0.004698
21
-0.00171
0
LINE
8
Black
10
-0.004698
20
-0.00171
11
-0.004774
21
-0.001281
0
LINE
8
Black
10
-0.004774
20
-0.001281
11
-0.004924
21
-0.000868
0
LINE
8
Black
10
-0.004924
20
-0.000868
11
-0.004924
21
-0.00043
0
LINE
8
Black
10
-0.004924
20
-0.00043
11
-0.005
21
0
0
LINE
8
Black
10
-0.005
20
0
11
-0.005
21
6.78
0
LINE
8
Black
10
-0.005
20
6.78
11
-0.004887
21
6.78064
0
LINE
8
Black
10
-0.004887
20
6.78064
11
-0.00483
21
6.78129
0
LINE
8
Black
10
-0.00483
20
6.78129
11
-0.004736
21
6.7815
0
LINE
8
Black
10
-0.004736
20
6.7815
11
-0.004698
21
6.78171
0
LINE
8
Black
10
-0.004698
20
6.78171
11
-0.004375
21
6.78227
0
LINE
8
Black
10
-0.004375
20
6.78227
11
-0.004096
21
6.78287
0
LINE
8
Black
10
-0.004096
20
6.78287
11
-0.003939
21
6.78302
0
LINE
8
Black
10
-0.003939
20
6.78302
11
-0.00383
21
6.78321
0
LINE
8
Black
10
-0.00383
20
6.78321
11
-0.003333
21
6.78363
0
LINE
8
Black
10
-0.003333
20
6.78363
11
-0.002868
21
6.7841
0
LINE
8
Black
10
-0.002868
20
6.7841
11
-0.002667
21
6.78419
0
LINE
8
Black
10
-0.002667
20
6.78419
11
-0.0025
21
6.78433
0
LINE
8
Black
10
-0.0025
20
6.78433
11
-0.00189
21
6.78455
0
LINE
8
Black
10
-0.00189
20
6.78455
11
-0.001294
21
6.78483
0
LINE
8
Black
10
-0.001294
20
6.78483
11
-0.001073
21
6.78485
0
LINE
8
Black
10
-0.001073
20
6.78485
11
-0.000868
21
6.78492
0
LINE
8
Black
10
-0.000868
20
6.78492
11
-0.000217
21
6.78492
0
LINE
8
Black
10
-0.000217
20
6.78492
11
0.000436
21
6.78498
0
LINE
8
Black
10
0.000436
20
6.78498
11
0.000648
21
6.78492
0
LINE
8
Black
10
8.71984
20
18.1268
11
8.61918
21
18.0423
0
LINE
8
Black
10
8.61918
20
18.0423
11
8.4957
21
17.9974
0
LINE
8
Black
10
8.4957
20
17.9974
11
8.3643
21
17.9974
0
LINE
8
Black
10
8.3643
20
17.9974
11
8.24082
21
18.0423
0
LINE
8
Black
10
8.24082
20
18.0423
11
8.14016
21
18.1268
0
LINE
8
Black
10
8.14016
20
18.1268
11
8.07446
21
18.2406
0
LINE
8
Black
10
8.07446
20
18.2406
11
8.05164
21
18.37
0
LINE
8
Black
10
8.05164
20
18.37
11
8.07446
21
18.4994
0
LINE
8
Black
10
8.07446
20
18.4994
11
8.14016
21
18.6132
0
LINE
8
Black
10
8.14016
20
18.6132
11
8.24082
21
18.6977
0
LINE
8
Black
10
8.24082
20
18.6977
11
8.3643
21
18.7426
0
LINE
8
Black
10
8.3643
20
18.7426
11
8.4957
21
18.7426
0
LINE
8
Black
10
8.4957
20
18.7426
11
8.61918
21
18.6977
0
LINE
8
Black
10
8.61918
20
18.6977
11
8.71984
21
18.6132
0
LINE
8
Black
10
8.71984
20
18.6132
11
8.78554
21
18.4994
0
LINE
8
Black
10
8.78554
20
18.4994
11
8.80836
21
18.37
0
LINE
8
Black
10
8.80836
20
18.37
11
8.78554
21
18.2406
0
LINE
8
Black
10
8.78554
20
18.2406
11
8.71984
21
18.1268
0
LINE
8
Black
10
8.71218
20
18.6068
11
8.61418
21
18.689
0
LINE
8
Black
10
8.61418
20
18.689
11
8.49397
21
18.7328
0
LINE
8
Black
10
8.49397
20
18.7328
11
8.36603
21
18.7328
0
LINE
8
Black
10
8.36603
20
18.7328
11
8.24582
21
18.689
0
LINE
8
Black
10
8.24582
20
18.689
11
8.14782
21
18.6068
0
LINE
8
Black
10
8.14782
20
18.6068
11
8.08385
21
18.496
0
LINE
8
Black
10
8.08385
20
18.496
11
8.06164
21
18.37
0
LINE
8
Black
10
8.06164
20
18.37
11
8.08385
21
18.244
0
LINE
8
Black
10
8.08385
20
18.244
11
8.14782
21
18.1332
0
LINE
8
Black
10
8.14782
20
18.1332
11
8.24582
21
18.051
0
LINE
8
Black
10
8.24582
20
18.051
11
8.36603
21
18.0072
0
LINE
8
Black
10
8.36603
20
18.0072
11
8.49397
21
18.0072
0
LINE
8
Black
10
8.49397
20
18.0072
11
8.61418
21
18.051
0
LINE
8
Black
10
8.61418
20
18.051
11
8.71218
21
18.1332
0
LINE
8
Black
10
8.71218
20
18.1332
11
8.77615
21
18.244
0
LINE
8
Black
10
8.77615
20
18.244
11
8.79836
21
18.37
0
LINE
8
Black
10
8.79836
20
18.37
11
8.77615
21
18.496
0
LINE
8
Black
10
8.77615
20
18.496
11
8.71218
21
18.6068
0
LINE
8
Black
10
31.5755
20
63.8504
11
31.4763
21
63.7672
0
LINE
8
Black
10
31.4763
20
63.7672
11
31.3547
21
63.723
0
LINE
8
Black
10
31.3547
20
63.723
11
31.2253
21
63.723
0
LINE
8
Black
10
31.2253
20
63.723
11
31.1037
21
63.7672
0
LINE
8
Black
10
31.1037
20
63.7672
11
31.0045
21
63.8504
0
LINE
8
Black
10
31.0045
20
63.8504
11
30.9398
21
63.9625
0
LINE
8
Black
10
30.9398
20
63.9625
11
30.9173
21
64.09
0
LINE
8
Black
10
30.9173
20
64.09
11
30.9398
21
64.2175
0
LINE
8
Black
10
30.9398
20
64.2175
11
31.0045
21
64.3296
0
LINE
8
Black
10
31.0045
20
64.3296
11
31.1037
21
64.4128
0
LINE
8
Black
10
31.1037
20
64.4128
11
31.2253
21
64.457
0
LINE
8
Black
10
31.2253
20
64.457
11
31.3547
21
64.457
0
LINE
8
Black
10
31.3547
20
64.457
11
31.4763
21
64.4128
0
LINE
8
Black
10
31.4763
20
64.4128
11
31.5755
21
64.3296
0
LINE
8
Black
10
31.5755
20
64.3296
11
31.6402
21
64.2175
0
LINE
8
Black
10
31.6402
20
64.2175
11
31.6627
21
64.09
0
LINE
8
Black
10
31.6627
20
64.09
11
31.6402
21
63.9625
0
LINE
8
Black
10
31.6402
20
63.9625
11
31.5755
21
63.8504
0
LINE
8
Black
10
31.5678
20
64.3231
11
31.4713
21
64.4041
0
LINE
8
Black
10
31.4713
20
64.4041
11
31.353
21
64.4472
0
LINE
8
Black
10
31.353
20
64.4472
11
31.227
21
64.4472
0
LINE
8
Black
10
31.227
20
64.4472
11
31.1087
21
64.4041
0
LINE
8
Black
10
31.1087
20
64.4041
11
31.0122
21
64.3231
0
LINE
8
Black
10
31.0122
20
64.3231
11
30.9492
21
64.214
0
LINE
8
Black
10
30.9492
20
64.214
11
30.9273
21
64.09
0
LINE
8
Black
10
30.9273
20
64.09
11
30.9492
21
63.966
0
LINE
8
Black
10
30.9492
20
63.966
11
31.0122
21
63.8569
0
LINE
8
Black
10
31.0122
20
63.8569
11
31.1087
21
63.7759
0
LINE
8
Black
10
31.1087
20
63.7759
11
31.227
21
63.7328
0
LINE
8
Black
10
31.227
20
63.7328
11
31.353
21
63.7328
0
LINE
8
Black
10
31.353
20
63.7328
11
31.4713
21
63.7759
0
LINE
8
Black
10
31.4713
20
63.7759
11
31.5678
21
63.8569
0
LINE
8
Black
10
31.5678
20
63.8569
11
31.6308
21
63.966
0
LINE
8
Black
10
31.6308
20
63.966
11
31.6527
21
64.09
0
LINE
8
Black
10
31.6527
20
64.09
11
31.6308
21
64.214
0
LINE
8
Black
10
31.6308
20
64.214
11
31.5678
21
64.3231
0
LINE
8
Black
10
34.0004
20
67.0049
11
34.0009
21
67.0049
0
LINE
8
Black
10
34.0009
20
67.0049
11
34.0013
21
67.0048
0
LINE
8
Black
10
34.0013
20
67.0048
11
34.0017
21
67.0047
0
LINE
8
Black
10
34.0017
20
67.0047
11
34.0021
21
67.0045
0
LINE
8
Black
10
34.0021
20
67.0045
11
34.0025
21
67.0043
0
LINE
8
Black
10
34.0025
20
67.0043
11
34.0028
21
67.004
0
LINE
8
Black
10
34.0028
20
67.004
11
34.0032
21
67.0038
0
LINE
8
Black
10
34.0032
20
67.0038
11
34.0035
21
67.0035
0
LINE
8
Black
10
34.0035
20
67.0035
11
34.0038
21
67.0032
0
LINE
8
Black
10
34.0038
20
67.0032
11
34.004
21
67.0028
0
LINE
8
Black
10
34.004
20
67.0028
11
34.0043
21
67.0025
0
LINE
8
Black
10
34.0043
20
67.0025
11
34.0045
21
67.0021
0
LINE
8
Black
10
34.0045
20
67.0021
11
34.0047
21
67.0017
0
LINE
8
Black
10
34.0047
20
67.0017
11
34.0048
21
67.0013
0
LINE
8
Black
10
34.0048
20
67.0013
11
34.0049
21
67.0009
0
LINE
8
Black
10
34.0049
20
67.0009
11
34.0049
21
67.0004
0
LINE
8
Black
10
34.0049
20
67.0004
11
34.005
21
67
0
LINE
8
Black
10
34.005
20
67
11
34.005
21
64.79
0
LINE
8
Black
10
34.005
20
64.79
11
34.005
21
64.46
0
LINE
8
Black
10
34.005
20
64.46
11
34.0049
21
64.4594
0
LINE
8
Black
10
34.0049
20
64.4594
11
34.0048
21
64.4587
0
LINE
8
Black
10
34.0048
20
64.4587
11
34.0047
21
64.4585
0
LINE
8
Black
10
34.0047
20
64.4585
11
34.0047
21
64.4583
0
LINE
8
Black
10
34.0047
20
64.4583
11
34.0044
21
64.4577
0
LINE
8
Black
10
34.0044
20
64.4577
11
34.0041
21
64.4571
0
LINE
8
Black
10
34.0041
20
64.4571
11
34.0039
21
64.457
0
LINE
8
Black
10
34.0039
20
64.457
11
34.0038
21
64.4568
0
LINE
8
Black
10
34.0038
20
64.4568
11
34.0033
21
64.4564
0
LINE
8
Black
10
34.0033
20
64.4564
11
34.0029
21
64.4559
0
LINE
8
Black
10
34.0029
20
64.4559
11
34.0027
21
64.4558
0
LINE
8
Black
10
34.0027
20
64.4558
11
34.0025
21
64.4557
0
LINE
8
Black
10
34.0025
20
64.4557
11
34.0019
21
64.4554
0
LINE
8
Black
10
34.0019
20
64.4554
11
34.0013
21
64.4552
0
LINE
8
Black
10
34.0013
20
64.4552
11
34.0011
21
64.4552
0
LINE
8
Black
10
34.0011
20
64.4552
11
34.0009
21
64.4551
0
LINE
8
Black
10
34.0009
20
64.4551
11
34.0002
21
64.4551
0
LINE
8
Black
10
34.0002
20
64.4551
11
33.9996
21
64.455
0
LINE
8
Black
10
33.9996
20
64.455
11
33.9994
21
64.4551
0
LINE
8
Black
10
33.9994
20
64.4551
11
33.9991
21
64.4551
0
LINE
8
Black
10
33.9991
20
64.4551
11
33.9985
21
64.4553
0
LINE
8
Black
10
33.9985
20
64.4553
11
33.9979
21
64.4555
0
LINE
8
Black
10
33.9979
20
64.4555
11
33.9977
21
64.4556
0
LINE
8
Black
10
33.9977
20
64.4556
11
33.9975
21
64.4557
0
LINE
8
Black
10
33.9975
20
64.4557
11
33.997
21
64.4561
0
LINE
8
Black
10
33.997
20
64.4561
11
33.9965
21
64.4565
0
LINE
8
Black
10
33.9965
20
64.4565
11
31.4565
21
66.9965
0
LINE
8
Black
10
31.4565
20
66.9965
11
31.4561
21
66.997
0
LINE
8
Black
10
31.4561
20
66.997
11
31.4557
21
66.9975
0
LINE
8
Black
10
31.4557
20
66.9975
11
31.4556
21
66.9977
0
LINE
8
Black
10
31.4556
20
66.9977
11
31.4555
21
66.9979
0
LINE
8
Black
10
31.4555
20
66.9979
11
31.4553
21
66.9985
0
LINE
8
Black
10
31.4553
20
66.9985
11
31.4551
21
66.9991
0
LINE
8
Black
10
31.4551
20
66.9991
11
31.4551
21
66.9994
0
LINE
8
Black
10
31.4551
20
66.9994
11
31.455
21
66.9996
0
LINE
8
Black
10
31.455
20
66.9996
11
31.4551
21
67.0002
0
LINE
8
Black
10
31.4551
20
67.0002
11
31.4551
21
67.0009
0
LINE
8
Black
10
31.4551
20
67.0009
11
31.4552
21
67.0011
0
LINE
8
Black
10
31.4552
20
67.0011
11
31.4552
21
67.0013
0
LINE
8
Black
10
31.4552
20
67.0013
11
31.4554
21
67.0019
0
LINE
8
Black
10
31.4554
20
67.0019
11
31.4557
21
67.0025
0
LINE
8
Black
10
31.4557
20
67.0025
11
31.4558
21
67.0027
0
LINE
8
Black
10
31.4558
20
67.0027
11
31.4559
21
67.0029
0
LINE
8
Black
10
31.4559
20
67.0029
11
31.4564
21
67.0033
0
LINE
8
Black
10
31.4564
20
67.0033
11
31.4568
21
67.0038
0
LINE
8
Black
10
31.4568
20
67.0038
11
31.457
21
67.0039
0
LINE
8
Black
10
31.457
20
67.0039
11
31.4571
21
67.0041
0
LINE
8
Black
10
31.4571
20
67.0041
11
31.4577
21
67.0044
0
LINE
8
Black
10
31.4577
20
67.0044
11
31.4583
21
67.0047
0
LINE
8
Black
10
31.4583
20
67.0047
11
31.4585
21
67.0047
0
LINE
8
Black
10
31.4585
20
67.0047
11
31.4587
21
67.0048
0
LINE
8
Black
10
31.4587
20
67.0048
11
31.4594
21
67.0049
0
LINE
8
Black
10
31.4594
20
67.0049
11
31.46
21
67.005
0
LINE
8
Black
10
31.46
20
67.005
11
34
21
67.005
0
LINE
8
Black
10
34
20
67.005
11
34.0004
21
67.0049
0
LINE
8
Black
10
31.4721
20
66.995
11
33.995
21
64.4721
0
LINE
8
Black
10
33.995
20
64.4721
11
33.995
21
64.79
0
LINE
8
Black
10
33.995
20
64.79
11
33.995
21
66.995
0
LINE
8
Black
10
33.995
20
66.995
11
31.4721
21
66.995
  0
ENDSEC
  0
EOF
